<?xml version="1.0" encoding="utf-8" ?>
<svg xmlns="http://www.w3.org/2000/svg" xmlns:xlink="http://www.w3.org/1999/xlink" width="420" height="336">
	<path fill="#9A6E44" d="M93.2026 161.576C93.4003 161.586 94.0825 161.55 94.2216 161.627C95.1651 162.15 95.8794 163.331 96.9831 163.934C96.5881 164.755 96.3289 165.088 96.4523 166.016L95.5142 166.482C93.8753 165.025 93.3351 163.771 93.2026 161.576Z"/>
	<path fill="#7D4D25" d="M345.426 231.436C345.999 231.273 346.243 231.169 346.614 230.696C347.029 232.096 344.756 236.806 343.916 238.201C343.785 238.418 343.638 238.553 343.455 238.724C343.717 237.814 343.325 235.727 342.946 234.874C343.011 234.829 343.076 234.786 343.139 234.739C343.817 234.241 345.297 232.246 345.426 231.436Z"/>
	<path fill="#532A0F" d="M346.02 180.99L346.409 180.415C346.441 180.448 346.475 180.48 346.505 180.514C347.227 181.347 347.22 183.215 347.379 184.306C347.618 185.944 347.825 187.605 348.177 189.223C348.614 191.226 349.663 193.544 349.615 195.569C349.561 197.877 349.317 200.183 349.338 202.494C349.37 205.787 350.047 209.666 349.444 212.884C349.38 213.227 349.2 213.523 348.955 213.767L348.67 213.047C348.707 212.92 348.781 212.691 348.804 212.548C349.162 210.278 348.638 207.251 348.571 204.907C348.491 202.096 348.659 199.222 348.417 196.425C348.243 194.403 346.479 181.712 346.02 180.99Z"/>
	<path fill="#9A6E44" d="M297.287 309.452C297.336 309.137 297.447 308.817 297.53 308.507L298.208 308.204C298.389 310.278 298.98 312.317 299.461 314.339C301.048 321.015 303.911 329.313 304.175 336L303.156 336C302.415 334.201 302.081 332.036 301.623 330.14C299.964 323.271 298.895 316.323 297.287 309.452Z"/>
	<path fill="#9A6E44" d="M93.6725 318.828L94.7586 319.774C94.7956 322.041 93.6478 324.233 93.5437 326.5C93.4051 329.518 94.3462 332.908 94.4902 336L90.0064 336C90.1186 332.893 91.2908 329.636 92.0679 326.627C92.7371 324.036 93.2725 321.474 93.6725 318.828Z"/>
	<path fill="#7D4D25" d="M96.4523 166.016C97.0103 166.178 97.7151 166.48 98.2964 166.413C98.106 170.531 95.0454 178.19 93.214 181.974C92.4893 182.639 91.7828 183.283 91.1663 184.053C91.0703 179.891 94.825 171.929 95.5142 166.482L96.4523 166.016Z"/>
	<path fill="#9A6E44" d="M348.67 213.047L348.955 213.767C350.093 216.346 347.954 227.13 347.012 229.984C346.924 230.25 346.771 230.468 346.614 230.696C346.243 231.169 345.999 231.273 345.426 231.436C345.56 231.156 345.744 230.934 345.694 230.614C345.547 229.662 344.632 229.115 343.917 228.587C344.282 228.303 344.611 227.994 344.9 227.632C345.638 226.71 347.205 224.612 347.072 223.476C345.931 223.142 346.406 221.435 345.195 220.703C345.495 220.536 345.683 220.427 345.875 220.128C346.574 219.039 346.438 216.232 346.188 215.003C346.23 214.631 346.363 214.325 346.499 213.979C347.02 213.535 347.559 213.591 348.213 213.57L348.522 213.561L348.67 213.047Z"/>
	<path fill="#D1A074" d="M346.188 215.003C346.884 215.19 347.616 215.273 348 215.93C348.873 217.421 348.716 219.15 348.276 220.751C348.025 221.668 347.658 222.719 347.072 223.476C345.931 223.142 346.406 221.435 345.195 220.703C345.495 220.536 345.683 220.427 345.875 220.128C346.574 219.039 346.438 216.232 346.188 215.003Z"/>
	<path fill="#AE6824" d="M111.418 277.949C111.991 278.459 112.695 278.911 113.074 279.587C111.207 280.835 110.043 282.153 108.757 283.984Q105.763 288.496 103.006 293.157C99.1309 301.711 96.4173 310.319 94.9507 319.602L94.7586 319.774L93.6725 318.828C94.5892 315.448 94.793 311.927 95.5803 308.518C96.3847 305.035 97.9191 301.622 99.1393 298.262C99.7063 296.701 100.216 294.468 101.25 293.172C102.901 290.894 103.965 288.273 105.557 285.958C107.235 283.134 109.424 280.556 111.418 277.949Z"/>
	<defs>
		<linearGradient id="gradient_0" gradientUnits="userSpaceOnUse" x1="295.48038" y1="72.435631" x2="272.1478" y2="64.704636">
			<stop offset="0" stop-color="#A95B0B"/>
			<stop offset="1" stop-color="#D28522"/>
		</linearGradient>
	</defs>
	<path fill="url(#gradient_0)" d="M294.246 52.6443C294.469 52.7355 294.693 52.8204 294.93 52.8713C297.635 53.4544 301.49 51.1693 303.769 49.84C303.052 52.9746 299.519 53.8364 297.411 55.8783C294.839 58.3711 291.53 63.835 289.818 67.0119C288.123 69.169 287.512 72.0139 285.764 74.015C284.627 75.3157 282.936 76.2519 281.583 77.3242C278.534 79.7397 275.363 83.425 273.703 86.9535C273.275 87.8635 273.116 88.8441 272.739 89.7545C270.133 87.4863 268.21 84.2102 265.318 82.3238C260.964 79.4833 247.077 77.8115 241.649 77.5779C238.416 77.4387 234.327 78.1653 231.327 76.9802C242.471 75.8801 255.768 77.6068 266.269 81.4821C269.172 78.6705 271.715 75.5548 274.571 72.7158C277.316 69.9872 280.479 67.6892 283.24 64.9753C287.123 61.1585 290.645 56.7399 294.246 52.6443Z"/>
	<path fill="#D08937" d="M66.0581 23.7991C68.9358 19.4906 72.1856 16.528 77.4483 15.5206C90.5408 13.0145 103.876 19.1299 114.362 26.3963C124.607 33.4954 133.148 43.0448 141.033 52.6295C143.984 56.2161 146.746 60.0297 149.903 63.4363C153.027 66.807 157.054 69.41 160.412 72.582C163.628 75.6205 166.971 79.6101 171.109 81.3419C172.909 80.9212 174.601 80.37 176.336 79.739C175.525 80.4378 174.593 80.9846 173.813 81.7095C169.11 86.0782 165.354 90.7804 158.963 92.8355C158.955 92.2985 159.017 91.9847 159.293 91.5161C159.488 91.186 159.832 90.6262 159.84 90.2287C159.868 88.7096 157.93 85.1909 157.48 83.5466C156.847 81.2361 156.81 78.9165 156.77 76.5418C155.272 74.2431 153.66 71.9914 151.622 70.1329C149.95 68.6075 148.058 67.253 146.585 65.5245C144.63 63.2308 143.194 60.3211 141.383 57.8796Q137.624 52.8257 133.294 48.2512Q128.964 43.6767 124.124 39.6455C121.032 37.0919 117.668 34.8944 114.425 32.5418C110.111 29.4127 105.808 25.7595 100.962 23.4988C98.8296 22.5043 96.8736 21.8319 94.5109 22.0574C92.0328 21.0854 83.524 19.2369 81.1014 19.4924C75.4926 18.6334 71.1516 24.9551 66.0581 23.7991Z"/>
	<path fill="#D08937" d="M294.246 52.6443C299.507 47.0951 304.759 42.2009 310.523 37.1845C313.242 34.8187 315.901 32.3021 318.726 30.0676C323.649 26.1736 329.125 22.8 334.618 19.7794C337.278 18.3163 339.946 16.7944 342.823 15.7947Q345.181 14.9902 347.633 14.5465Q350.085 14.1028 352.576 14.0299Q353.058 14.0124 353.54 14.0186Q354.022 14.0249 354.504 14.0551Q354.985 14.0852 355.464 14.139Q355.944 14.1929 356.42 14.2703Q356.896 14.3478 357.367 14.4487Q357.839 14.5496 358.305 14.6737Q358.771 14.7977 359.23 14.9447Q359.69 15.0916 360.141 15.2611Q360.593 15.4306 361.035 15.6221Q361.478 15.8137 361.91 16.0269Q362.343 16.2401 362.764 16.4744Q363.186 16.7087 363.595 16.9636Q364.005 17.2184 364.401 17.4932Q364.797 17.768 365.18 18.062Q365.562 18.356 365.929 18.6685Q366.297 18.9811 366.648 19.3114C374.682 26.9708 376.113 40.4832 376.286 50.9416C376.471 62.1041 372.962 82.6367 369.465 93.1462Q367.5 98.8751 364.516 104.146C363.847 105.316 363.059 107.004 362.146 107.952C362.065 108.036 361.931 108.135 361.845 108.203C360.713 108.522 359.478 109.434 358.316 109.888C358.605 109.551 358.874 109.196 359.041 108.781C359.825 106.836 360.195 104.697 360.939 102.726C363.768 95.2263 366.852 87.81 368.67 79.9782C370.065 73.9651 370.606 67.9122 371.325 61.8033C371.577 59.6604 372.482 55.7804 371.71 53.7525C372.642 51.2627 369.159 37.1026 368.147 34.2011C368.206 33.5802 368.077 33.4161 367.692 32.9127C365.511 30.0612 358.741 25.1887 355.362 24.0138C353.483 23.3603 351.214 23.2019 349.233 22.9702C348.875 22.1879 348.434 21.4688 347.988 20.7361L347.744 20.3241C345.756 19.9032 336.563 25.0466 334.528 26.3711C334.402 26.4535 334.282 26.5461 334.161 26.6357C331.311 28.1412 328.525 29.6591 325.795 31.3757C322.04 33.3982 319.248 36.3842 315.951 39.0078C313.661 40.8295 311.166 42.3834 309.025 44.3902C307.182 46.1163 305.586 48.0918 303.769 49.84C301.49 51.1693 297.635 53.4544 294.93 52.8713C294.693 52.8204 294.469 52.7355 294.246 52.6443Z"/>
	<path fill="#AE6824" d="M347.988 20.7361C350.525 20.7775 353.195 20.6789 355.689 21.164C359.472 21.8998 363.982 25.2504 366.563 27.9375C367.894 29.3236 370.406 32.1855 370.422 34.2458C370.423 34.4307 370.366 34.6164 370.32 34.7938C372.597 37.2527 372.621 46.6255 372.486 49.9709C372.441 51.0944 372.519 52.9154 371.71 53.7525C372.642 51.2627 369.159 37.1026 368.147 34.2011C368.206 33.5802 368.077 33.4161 367.692 32.9127C365.511 30.0612 358.741 25.1887 355.362 24.0138C353.483 23.3603 351.214 23.2019 349.233 22.9702C348.875 22.1879 348.434 21.4688 347.988 20.7361Z"/>
	<path fill="#6D3503" d="M334.161 26.6357C334.282 26.5461 334.402 26.4535 334.528 26.3711C336.563 25.0466 345.756 19.9032 347.744 20.3241L347.988 20.7361C348.434 21.4688 348.875 22.1879 349.233 22.9702C351.214 23.2019 353.483 23.3603 355.362 24.0138C358.741 25.1887 365.511 30.0612 367.692 32.9127C368.077 33.4161 368.206 33.5802 368.147 34.2011C369.159 37.1026 372.642 51.2627 371.71 53.7525C372.482 55.7804 371.577 59.6604 371.325 61.8033C370.606 67.9122 370.065 73.9651 368.67 79.9782C366.852 87.81 363.768 95.2263 360.939 102.726C360.195 104.697 359.825 106.836 359.041 108.781C358.874 109.196 358.605 109.551 358.316 109.888C359.478 109.434 360.713 108.522 361.845 108.203C361.848 108.788 361.825 108.785 361.456 109.244C362.21 111.465 362.629 120.62 361.566 122.673C361.478 122.844 361.429 122.915 361.332 123.067C361.574 123.73 361.698 124.278 361.399 124.953C361.304 125.167 361.16 125.335 361.014 125.514C361.751 127.627 359.956 131.525 359.008 133.488C358.112 135.345 356.534 138.672 354.824 139.783C354.082 143.963 343.329 151.745 342.125 157.785C341.043 163.212 348.21 177.188 346.409 180.415L346.02 180.99C346.035 180.944 346.052 180.899 346.064 180.852C346.712 178.3 344.9 172.047 343.83 169.6C343.22 168.204 342.4 166.902 341.606 165.604C341.804 164.989 341.911 164.561 341.852 163.914C339.85 160.924 338.4 157.635 335.998 154.922C331.226 149.532 325.029 145.675 320.431 140.052C317.018 135.879 309.567 123.01 306.036 120.753L306.009 117.641L302.531 116.002C301.719 115.091 301.466 113.791 300.664 112.886C299.214 111.251 297.01 109.869 295.319 108.451C293.455 106.889 291.715 105.153 289.919 103.51C289.503 102.374 288.825 101.648 287.964 100.819C285.756 98.6956 280.875 94.7698 277.766 94.8116C275.793 93.4353 274.285 91.5702 272.739 89.7545C273.116 88.8441 273.275 87.8635 273.703 86.9535C275.363 83.425 278.534 79.7397 281.583 77.3242C282.936 76.2519 284.627 75.3157 285.764 74.015C287.512 72.0139 288.123 69.169 289.818 67.0119C291.53 63.835 294.839 58.3711 297.411 55.8783C299.519 53.8364 303.052 52.9746 303.769 49.84C305.586 48.0918 307.182 46.1163 309.025 44.3902C311.166 42.3834 313.661 40.8295 315.951 39.0078C319.248 36.3842 322.04 33.3982 325.795 31.3757C328.525 29.6591 331.311 28.1412 334.161 26.6357Z"/>
	<path fill="#7D4D25" d="M334.161 26.6357C334.282 26.5461 334.402 26.4535 334.528 26.3711C336.563 25.0466 345.756 19.9032 347.744 20.3241L347.988 20.7361C348.434 21.4688 348.875 22.1879 349.233 22.9702C347.526 23.0006 346.039 23.1078 344.382 23.5673C341.69 24.314 336.861 27.2401 334.468 26.7018L334.161 26.6357Z"/>
	<path fill="#7D4D25" d="M303.769 49.84C305.586 48.0918 307.182 46.1163 309.025 44.3902C311.166 42.3834 313.661 40.8295 315.951 39.0078C319.248 36.3842 322.04 33.3982 325.795 31.3757C325.282 33.73 318.277 40.2811 316.108 42.0761C313.479 44.2515 310.49 46.0331 308.183 48.5713C304.589 52.5255 300.816 57.1589 298.063 61.7458C296.008 65.1694 294.417 68.9192 292.006 72.1197C292.069 70.738 292.463 68.7553 291.855 67.4917C291.142 66.9497 290.69 67.0451 289.818 67.0119C291.53 63.835 294.839 58.3711 297.411 55.8783C299.519 53.8364 303.052 52.9746 303.769 49.84Z"/>
	<defs>
		<linearGradient id="gradient_1" gradientUnits="userSpaceOnUse" x1="347.91809" y1="123.44451" x2="360.44562" y2="124.66105">
			<stop offset="0" stop-color="#9E5009"/>
			<stop offset="1" stop-color="#C0741F"/>
		</linearGradient>
	</defs>
	<path fill="url(#gradient_1)" d="M346.824 127.481C352.409 126.411 355.249 119.529 357.28 114.841C357.946 113.303 358.596 111.366 359.74 110.13C360.253 109.575 360.701 109.298 361.456 109.244C362.21 111.465 362.629 120.62 361.566 122.673C361.478 122.844 361.429 122.915 361.332 123.067C361.574 123.73 361.698 124.278 361.399 124.953C361.304 125.167 361.16 125.335 361.014 125.514C361.751 127.627 359.956 131.525 359.008 133.488C358.112 135.345 356.534 138.672 354.824 139.783C354.849 138.525 354.88 137.38 354.393 136.191C354.165 135.635 353.814 135.306 353.259 135.105C352.305 134.76 351.15 135.421 350.284 135.805C348.048 133.457 347.972 130.477 346.896 127.66C346.873 127.6 346.848 127.541 346.824 127.481Z"/>
	<path fill="#D08937" d="M350 130.12C350.721 130.007 351.683 130.034 352.391 130.223C353.061 130.402 353.252 130.546 353.599 131.123L353.303 131.742C352.808 131.904 352.411 131.918 351.899 131.785C351.006 131.554 350.48 130.854 350 130.12Z"/>
	<path fill="#D08937" d="M361.014 125.514C360.389 127.021 359.665 128.775 358.381 129.843C357.951 130.201 357.881 130.197 357.331 130.148C356.897 129.461 356.859 128.708 356.903 127.914C357.03 125.607 358.068 123.162 358.531 120.874C358.965 118.727 359.061 116.523 359.526 114.379C359.757 113.317 360.527 112.006 360.294 110.946C360.283 110.897 360.268 110.848 360.254 110.8C360.41 111.034 360.563 111.233 360.644 111.504C360.815 112.077 361.151 112.552 361.295 113.158C361.992 116.082 361.428 120.043 361.332 123.067C361.574 123.73 361.698 124.278 361.399 124.953C361.304 125.167 361.16 125.335 361.014 125.514Z"/>
	<path fill="#2E0D03" d="M306.422 92.8532C311.626 89.4732 317.851 83.9349 323.806 82.3951C325.204 82.0337 326.701 82.0136 328.137 81.9398C327.154 82.8837 326.348 83.59 326.269 85.0454C326.135 87.5171 327.889 89.7053 329.503 91.3799C330.912 92.8426 332.543 94.3286 334.197 95.5019C331.928 99.7771 330.29 104.246 328.554 108.753C327.653 111.092 326.582 113.405 325.964 115.84C325.367 118.195 325.256 120.627 324.7 122.966C323.064 122.995 321.41 122.971 319.778 123.079L319.646 122.898L319.194 123.272L319.549 122.827C318.524 122.064 317.511 121.263 316.45 120.552C316.869 119.808 317.33 119.186 317.215 118.299C316.766 117.632 316.506 117.349 315.648 117.218C313.197 116.844 310.241 117.822 307.955 118.611C307.387 119.334 306.817 120.256 306.036 120.753L306.009 117.641L302.531 116.002C307.053 108.599 310.59 100.625 317.715 95.2905C313.999 94.1601 310.373 92.7237 306.422 92.8532Z"/>
	<path fill="#6D3503" d="M66.0581 23.7991C71.1516 24.9551 75.4926 18.6334 81.1014 19.4924C83.524 19.2369 92.0328 21.0854 94.5109 22.0574C96.8736 21.8319 98.8296 22.5043 100.962 23.4988C105.808 25.7595 110.111 29.4127 114.425 32.5418C117.668 34.8944 121.032 37.0919 124.124 39.6455Q128.964 43.6767 133.294 48.2512Q137.624 52.8257 141.383 57.8796C143.194 60.3211 144.63 63.2308 146.585 65.5245C148.058 67.253 149.95 68.6075 151.622 70.1329C153.66 71.9914 155.272 74.2431 156.77 76.5418C156.81 78.9165 156.847 81.2361 157.48 83.5466C157.93 85.1909 159.868 88.7096 159.84 90.2287C159.832 90.6262 159.488 91.186 159.293 91.5161C159.017 91.9847 158.955 92.2985 158.963 92.8355C157.678 93.6339 156.431 94.4487 155.206 95.3372C153.769 96.7158 152.244 98.5861 150.652 99.7224C149.25 100.722 147.028 100.654 146.301 102.382C146.474 103.029 146.703 103.617 146.973 104.229C146.468 105.085 145.318 105.002 144.425 106.132L144.218 106.357C142.689 107.998 139.873 109.447 138.802 111.307C138.858 111.815 138.997 112.157 139.224 112.613C138.753 113.321 137.68 113.38 137.125 114.038C135.847 115.553 135.503 117.946 134.48 119.65C133.44 121.383 131.604 122.544 130.688 124.394C130.167 125.447 129.944 126.584 129.812 127.741C127.918 129.838 125.896 131.856 124.209 134.126C123.018 135.728 122.052 137.687 120.784 139.19C118.195 142.489 117.365 146.607 115.642 150.368C112.855 156.453 106.052 163.402 99.1876 164.492C98.4816 164.233 97.716 164.101 96.9831 163.934C95.8794 163.331 95.1651 162.15 94.2216 161.627C94.0825 161.55 93.4003 161.586 93.2026 161.576C93.6472 154.893 88.7096 152.692 84.4698 148.793C82.6005 147.074 80.9863 145.001 79.6447 142.85C73.0606 132.292 71.3684 120.863 74.1806 108.819C71.7934 105.877 69.9748 102.458 68.4722 98.9891C60.7993 81.2779 56.1451 47.4488 63.3268 29.3147C63.9935 27.3501 64.9441 25.5414 66.0581 23.7991Z"/>
	<path fill="#401A05" d="M77.7934 112.937C80.5789 113.209 84.3402 115.329 86.5106 116.969C90.1013 119.682 91.2549 122.631 91.8663 126.933C91.6487 126.885 91.6122 126.883 91.422 126.824C89.7485 126.304 88.4319 123.543 87.476 122.127C85.0437 118.523 79.6195 116.498 77.7934 112.937Z"/>
	<path fill="#532A0F" d="M114.354 83.3616C117.754 83.7027 121.32 85.6811 123.461 88.3135C125.118 90.35 125.936 92.6554 127.003 95.0044C125.352 94.9871 123.488 95.1154 121.951 94.4343C122.123 93.9872 122.371 93.449 122.407 92.969C122.533 91.2468 116.647 86.7741 115.283 85.2047C114.858 84.7097 114.618 83.9584 114.354 83.3616Z"/>
	<path fill="#AE6824" d="M66.0581 23.7991C71.1516 24.9551 75.4926 18.6334 81.1014 19.4924C79.1412 21.8742 75.4966 22.7622 73.2384 24.9199C70.3926 27.1496 68.0124 29.8848 64.7261 31.4754C65.2046 30.7157 66.3103 29.3494 66.391 28.495L66.1085 28.2619C65.2253 28.4857 64.9751 29.5268 64.0273 29.8355C63.7632 29.6699 63.5267 29.554 63.3268 29.3147C63.9935 27.3501 64.9441 25.5414 66.0581 23.7991Z"/>
	<path fill="#7D4D25" d="M81.1014 19.4924C83.524 19.2369 92.0328 21.0854 94.5109 22.0574C109.062 31.2542 124.346 40.9927 134.739 54.9561C140.077 62.1283 144.509 70.1893 149.855 77.1896C148.231 77.9118 146.615 78.6744 144.942 79.2749C145.087 78.1414 145.052 76.9464 144.802 75.8303C142.801 66.883 132.463 54.6877 126.057 48.3662C123.512 45.8549 120.704 43.5914 118.01 41.2428C116.539 39.9606 115.163 38.5265 113.616 37.3392C111.575 35.7727 108.983 35.0973 106.918 33.5529C104.081 31.4311 101.615 28.7523 98.552 26.9377C95.0831 24.8824 91.486 24.6441 87.9101 22.4469C84.3331 20.249 78.8718 24.4412 75.2513 25.25C74.3099 25.4603 74.0156 25.417 73.2384 24.9199C75.4966 22.7622 79.1412 21.8742 81.1014 19.4924Z"/>
	<path fill="#AE6824" d="M94.5109 22.0574C96.8736 21.8319 98.8296 22.5043 100.962 23.4988C105.808 25.7595 110.111 29.4127 114.425 32.5418C117.668 34.8944 121.032 37.0919 124.124 39.6455Q128.964 43.6767 133.294 48.2512Q137.624 52.8257 141.383 57.8796C143.194 60.3211 144.63 63.2308 146.585 65.5245C148.058 67.253 149.95 68.6075 151.622 70.1329C153.66 71.9914 155.272 74.2431 156.77 76.5418C156.81 78.9165 156.847 81.2361 157.48 83.5466C157.93 85.1909 159.868 88.7096 159.84 90.2287C159.832 90.6262 159.488 91.186 159.293 91.5161C159.017 91.9847 158.955 92.2985 158.963 92.8355C157.678 93.6339 156.431 94.4487 155.206 95.3372C152.858 91.942 149.368 88.9321 147.673 85.1607C147.186 84.0778 148.093 82.5622 147.533 81.752C146.837 80.7456 145.558 80.5056 144.942 79.2749C146.615 78.6744 148.231 77.9118 149.855 77.1896C144.509 70.1893 140.077 62.1283 134.739 54.9561C124.346 40.9927 109.062 31.2542 94.5109 22.0574Z"/>
	<path fill="#401A05" d="M100.605 127.771C101.334 124.781 101.913 121.659 101.739 118.571C101.2 109.031 95.1856 97.542 98.6108 88.1714C99.4477 85.8817 101.024 83.9625 103.266 82.9468C106.845 81.3258 110.82 82.0725 114.354 83.3616C114.618 83.9584 114.858 84.7097 115.283 85.2047C111.154 89.5368 105.725 93.6655 103.355 99.2833C104.813 106.909 108.015 113.926 108.306 121.781C109.49 122.089 110.664 122.405 111.83 122.776C111.378 123.217 110.827 123.697 110.516 124.25C109.13 126.712 112.394 130.991 113.475 133.154C113.941 134.087 114.25 135.096 114.559 136.09C109.154 134.607 104.848 131.287 100.605 127.771Z"/>
	<path fill="#2E0D03" d="M115.283 85.2047C116.647 86.7741 122.533 91.2468 122.407 92.969C122.371 93.449 122.123 93.9872 121.951 94.4343C121.147 94.2203 120.456 94.0063 119.614 94.1445L119.34 94.377C119.365 95.7075 121.112 97.2357 122.01 98.095C123.605 99.6218 125.838 100.901 127.217 102.571C127.121 102.44 127.024 102.298 126.923 102.172L126.35 102.654C124.045 101.674 121.762 101.193 119.308 100.73C123.648 104.855 128.082 108.987 131.748 113.737C130.989 115.893 130.358 118.067 130.049 120.338C125.423 118.304 121.213 117.249 116.186 118.441C116.266 120.262 116.441 121.952 116.811 123.743C115.213 123.377 113.469 122.812 111.83 122.776C110.664 122.405 109.49 122.089 108.306 121.781C108.015 113.926 104.813 106.909 103.355 99.2833C105.725 93.6655 111.154 89.5368 115.283 85.2047Z"/>
	<defs>
		<linearGradient id="gradient_2" gradientUnits="userSpaceOnUse" x1="261.89658" y1="349.99524" x2="137.24756" y2="110.64677">
			<stop offset="0" stop-color="#AB7E49"/>
			<stop offset="1" stop-color="#E0A76C"/>
		</linearGradient>
	</defs>
	<path fill="url(#gradient_2)" d="M176.336 79.739C185.121 77.1378 194.182 75.734 203.366 76.1609C208.468 76.3981 213.532 77.0723 218.651 77.252C222.857 77.3997 227.121 77.1211 231.327 76.9802C234.327 78.1653 238.416 77.4387 241.649 77.5779C247.077 77.8115 260.964 79.4833 265.318 82.3238C268.21 84.2102 270.133 87.4863 272.739 89.7545C274.285 91.5702 275.793 93.4353 277.766 94.8116C280.875 94.7698 285.756 98.6956 287.964 100.819C288.825 101.648 289.503 102.374 289.919 103.51C291.715 105.153 293.455 106.889 295.319 108.451C297.01 109.869 299.214 111.251 300.664 112.886C301.466 113.791 301.719 115.091 302.531 116.002L306.009 117.641L306.036 120.753C309.567 123.01 317.018 135.879 320.431 140.052C325.029 145.675 331.226 149.532 335.998 154.922C338.4 157.635 339.85 160.924 341.852 163.914C341.911 164.561 341.804 164.989 341.606 165.604C342.4 166.902 343.22 168.204 343.83 169.6C344.9 172.047 346.712 178.3 346.064 180.852C346.052 180.899 346.035 180.944 346.02 180.99C346.479 181.712 348.243 194.403 348.417 196.425C348.659 199.222 348.491 202.096 348.571 204.907C348.638 207.251 349.162 210.278 348.804 212.548C348.781 212.691 348.707 212.92 348.67 213.047L348.522 213.561L348.213 213.57C347.559 213.591 347.02 213.535 346.499 213.979C346.363 214.325 346.23 214.631 346.188 215.003C346.438 216.232 346.574 219.039 345.875 220.128C345.683 220.427 345.495 220.536 345.195 220.703C346.406 221.435 345.931 223.142 347.072 223.476C347.205 224.612 345.638 226.71 344.9 227.632C344.611 227.994 344.282 228.303 343.917 228.587C344.632 229.115 345.547 229.662 345.694 230.614C345.744 230.934 345.56 231.156 345.426 231.436C345.297 232.246 343.817 234.241 343.139 234.739C343.076 234.786 343.011 234.829 342.946 234.874C343.325 235.727 343.717 237.814 343.455 238.724C344.039 242.246 338.024 251.817 335.935 254.746C333.507 258.151 330.534 261.4 328.366 264.964C324.056 272.051 321.439 279.955 316.947 286.971C313.793 291.896 309.389 295.862 305.696 300.368C303.811 302.667 301.028 307.129 298.208 308.204L297.53 308.507C297.447 308.817 297.336 309.137 297.287 309.452C298.895 316.323 299.964 323.271 301.623 330.14C302.081 332.036 302.415 334.201 303.156 336L289.874 336L244.613 336L191.526 336L94.4902 336C94.3462 332.908 93.4051 329.518 93.5437 326.5C93.6478 324.233 94.7956 322.041 94.7586 319.774L94.9507 319.602C96.4173 310.319 99.1309 301.711 103.006 293.157Q105.763 288.496 108.757 283.984C110.043 282.153 111.207 280.835 113.074 279.587C112.695 278.911 111.991 278.459 111.418 277.949C108.103 272.324 100.468 262.566 100.493 256.104C96.6501 251.381 97.1847 248.625 95.3493 243.349C94.8045 241.783 93.7548 240.382 93.366 238.763C92.5039 235.172 93.4996 234.518 91.3635 230.859C93.5634 223.637 90.1221 216.448 88.1708 209.568L89.3364 206.521C89.0418 205.281 88.2759 204.025 88.1262 202.777C87.9684 201.462 88.9919 199.895 89.0712 198.521C89.2101 196.117 88.3583 193.208 88.8176 190.925C89.2669 188.691 90.6147 186.436 91.1663 184.053C91.7828 183.283 92.4893 182.639 93.214 181.974C95.0454 178.19 98.106 170.531 98.2964 166.413C97.7151 166.48 97.0103 166.178 96.4523 166.016C96.3289 165.088 96.5881 164.755 96.9831 163.934C97.716 164.101 98.4816 164.233 99.1876 164.492C106.052 163.402 112.855 156.453 115.642 150.368C117.365 146.607 118.195 142.489 120.784 139.19C122.052 137.687 123.018 135.728 124.209 134.126C125.896 131.856 127.918 129.838 129.812 127.741C129.944 126.584 130.167 125.447 130.688 124.394C131.604 122.544 133.44 121.383 134.48 119.65C135.503 117.946 135.847 115.553 137.125 114.038C137.68 113.38 138.753 113.321 139.224 112.613C138.997 112.157 138.858 111.815 138.802 111.307C139.873 109.447 142.689 107.998 144.218 106.357L144.425 106.132C145.318 105.002 146.468 105.085 146.973 104.229C146.703 103.617 146.474 103.029 146.301 102.382C147.028 100.654 149.25 100.722 150.652 99.7224C152.244 98.5861 153.769 96.7158 155.206 95.3372C156.431 94.4487 157.678 93.6339 158.963 92.8355C165.354 90.7804 169.11 86.0782 173.813 81.7095C174.593 80.9846 175.525 80.4378 176.336 79.739Z"/>
	<path fill="#532A0F" d="M194.807 283.353C195.456 283.838 195.61 283.919 195.892 284.665C195.71 285.492 195.283 285.873 194.699 286.434C194.199 286.216 193.984 286.1 193.655 285.666C193.63 284.811 194.343 284.037 194.807 283.353Z"/>
	<path fill="#532A0F" d="M187.459 271.997C188.155 272.008 188.887 272.005 189.547 272.256C190.304 272.545 190.654 273.064 190.952 273.784C190.004 273.814 188.998 273.933 188.103 273.565C187.572 272.957 187.572 272.808 187.459 271.997Z"/>
	<path fill="#7D4D25" d="M178.079 252.072C178.848 252.303 179.615 252.663 180.025 253.396C180.47 254.19 180.275 254.963 180.034 255.784C179.482 255.632 178.894 255.349 178.521 254.906C177.822 254.073 177.974 253.068 178.079 252.072Z"/>
	<path fill="#7D4D25" d="M141.272 170.137C142.121 169.638 142.834 169.046 143.58 168.408C144.202 169.729 144.962 171.203 145.034 172.686C144.482 171.854 142.641 171.9 141.272 170.137Z"/>
	<path fill="#7D4D25" d="M187.602 257.098C188.015 257.154 188.441 257.251 188.839 257.376C189.684 257.641 189.985 258.014 190.372 258.747C190.426 259.546 190.14 259.985 189.752 260.642C189.413 260.646 189.038 260.658 188.708 260.576C188.296 260.474 187.847 260.142 187.621 259.784C187.08 258.926 187.345 257.99 187.602 257.098Z"/>
	<path fill="#9A6E44" d="M178.944 268.434C179.93 268.479 180.778 268.495 181.683 268.931C182.104 269.479 182.093 269.434 182.017 270.121C181.564 270.725 180.565 271.889 179.761 271.951C179.409 271.979 179.314 271.839 179.028 271.66L178.944 268.434Z"/>
	<path fill="#E8B98D" d="M258.303 127.801C259.929 127.393 261.132 127.032 262.806 127.44C261.955 129.13 260.409 129.576 259.221 132.068C259.114 130.766 259.136 129.258 258.652 128.038L258.303 127.801Z"/>
	<path fill="#7D4D25" d="M198.164 290.917C197.987 292.619 196.99 294.27 197.18 295.949C196.434 296.074 195.67 296.168 194.944 296.384C194.941 295.741 194.95 295.125 195.119 294.499C195.592 292.741 196.636 291.774 198.164 290.917Z"/>
	<path fill="#E8B98D" d="M289.922 264.285L291.258 264.375C292.849 264.875 298.418 266.207 299.236 267.739C299.27 267.803 299.298 267.87 299.329 267.935C297.678 268.395 291.575 265.617 289.599 265.125L289.211 264.867L289.782 264.666L289.922 264.285Z"/>
	<path fill="#7D4D25" d="M285.62 267.258C286.361 268.69 286.17 271.374 285.677 272.922C285.482 273.535 285.193 274.043 284.831 274.576L284.007 274.983Q283.867 274.553 283.752 274.116C283.141 271.747 284.463 269.253 285.62 267.258Z"/>
	<path fill="#9A6E44" d="M171.432 264.448C173.941 266.349 175.815 267.759 178.944 268.434L179.028 271.66C175.979 269.901 173.416 267.346 171.432 264.448Z"/>
	<path fill="#D1A074" d="M322.03 178.836C323.615 177.892 325.608 178.571 327.256 177.643C327.696 177.395 328.147 177.167 328.594 176.932L329.097 177.264C327.473 179.284 324.66 179.029 322.347 179.573C320.759 180.341 318.788 182.21 317.028 182.021C317.25 181.535 317.382 181.212 317.369 180.674L316.842 180.253C318.453 179.301 320.219 179.138 322.03 178.836Z"/>
	<path fill="#7D4D25" d="M131.105 302.886C131.811 302.996 132.095 303.675 132.777 303.931C132.745 303.346 132.283 302.939 132.145 302.251C135.944 306.768 141.423 308.142 145.822 311.88C140.273 310.188 134.891 307.434 131.105 302.886Z"/>
	<path fill="#C8945C" d="M295.555 259.541C297.446 260.659 300.313 262.069 302.487 262.378C305.741 264.123 311.709 266.517 313.761 269.555C308.3 267.36 301.064 261.64 295.404 260.851L295.555 259.541Z"/>
	<path fill="#D1A074" d="M178.627 223.227L179.068 223.926C179.658 224.01 180.133 223.939 180.508 224.433C179.625 225.998 178.625 226.569 178.863 228.57C178.402 228.444 177.945 228.331 177.484 228.515C177.153 228.647 177.247 228.55 177.13 228.829C177.172 229.484 177.566 229.989 177.903 230.531C177.724 231.083 177.05 231.287 176.61 231.659C175.122 232.917 175.742 236.052 175.57 237.9C175.204 236.158 174.935 234.388 174.63 232.634C176.067 229.615 176.818 226.011 178.627 223.227Z"/>
	<path fill="#AE6824" d="M264.458 145.609C265.756 143.767 267.641 142.714 269.872 142.241C270.083 142.196 270.239 142.239 270.445 142.282C271.071 143.783 268.729 146.621 270.234 147.395C270.427 147.495 270.55 147.511 270.751 147.556C270.331 147.749 270.27 148.056 269.999 148.385C269.625 148.841 269.503 148.767 268.958 148.799C268.223 148.145 268.105 147.079 267.866 146.138C267.32 145.805 267.369 145.82 266.745 145.97C265.915 145.997 265.245 145.83 264.458 145.609Z"/>
	<path fill="#D1A074" d="M298.403 216.358L299.785 215.64C299.837 216.602 301.176 219.032 300.749 219.514C300.438 219.865 299.698 219.987 299.247 220.11C299.05 220.411 298.982 220.369 299.07 220.752C299.278 221.646 300.459 222.859 301.116 223.503C300.423 224.154 299.859 224.599 298.996 225.025C298.769 225.137 298.549 225.231 298.396 225.436C298.371 225.391 298.339 225.35 298.319 225.303C297.273 222.752 297.239 218.88 298.403 216.358Z"/>
	<path fill="#E8B98D" d="M287.437 212.568C289.02 212.695 290.756 212.023 292.339 211.78Q295.821 211.219 299.348 211.208C297.992 212.113 295.141 213.557 294.786 215.244L294.003 215.384C291.84 214.188 289.796 212.729 287.237 212.775L287.437 212.568Z"/>
	<path fill="#7D4D25" d="M182.858 164.735C185.534 167.943 188.451 172.945 188.994 177.113L187.55 179.985L186.889 180.322L186.296 179.616C186.547 178.836 186.912 178.055 187.217 177.292C186.346 172.712 183.321 168.823 182.858 164.735Z"/>
	<path fill="#7D4D25" d="M158.906 267.99C158.189 265.253 157.907 261.925 158.206 259.124C158.297 258.271 158.451 256.96 159.152 256.395C159.724 256.497 159.936 256.643 160.346 257.05C159.535 259.73 160.98 262.93 161.054 265.685C160.438 266.473 159.793 267.518 158.906 267.99Z"/>
	<path fill="#7D4D25" d="M283.405 275.266L283.786 275.186C284.239 276.551 282.576 280.085 281.905 281.421C280.406 284.401 278.537 287.086 276.055 289.332L275.204 288.432Q277.149 285.888 278.687 283.08C280.352 280.525 282.031 277.993 283.405 275.266Z"/>
	<path fill="#9A6E44" d="M171.562 280.451C175.258 280.846 178.152 282.956 181.617 283.956C183.167 284.403 185.007 283.88 186.515 284.415C187.1 284.623 187.265 285.455 187.478 285.986C184.496 286.086 181.268 285.746 178.417 284.874C175.906 284.107 172.856 282.893 171.562 280.451Z"/>
	<path fill="#D08937" d="M191.995 178.707C192.219 178.456 192.181 178.528 192.317 178.294C193.069 177 193.966 174.74 195.494 174.254L196.074 174.654C195.851 176.522 195.939 178.347 196.021 180.221C193.389 183.013 191.087 186.012 188.906 189.166C187.358 189.257 185.769 189.913 184.296 190.38C185.72 188.765 187.809 187.562 188.208 185.294C190.059 183.609 191.406 181.125 191.995 178.707Z"/>
	<path fill="#D08937" d="M296.257 253.748C296.818 254.32 297.368 254.943 297.998 255.439C300.484 255.617 304.898 255.394 306.999 256.688L307.171 257.075C306.047 258.898 301.643 259.91 299.643 260.587C300.675 261.066 301.767 261.457 302.487 262.378C300.313 262.069 297.446 260.659 295.555 259.541C295.244 257.631 295.861 255.611 296.257 253.748Z"/>
	<path fill="#532A0F" d="M160.346 257.05C163.204 260.1 162.817 267.148 163.359 271.108C163.671 273.388 164.213 275.707 165.028 277.862L163.201 278.397C162.654 277.499 161.71 277.374 161.25 276.521C161.38 276.123 161.535 275.709 161.524 275.286C161.494 274.053 159.354 269.546 158.906 267.99C159.793 267.518 160.438 266.473 161.054 265.685C160.98 262.93 159.535 259.73 160.346 257.05Z"/>
	<path fill="#7D4D25" d="M163.201 278.397L165.028 277.862C168.013 284.591 174.273 292.385 181.346 295.094L181.562 295.175C180.835 295.201 180.2 295.071 179.622 295.536C179.827 296.152 180.102 296.447 180.561 296.897C175.569 295.346 172.425 292.054 168.793 288.541C167.8 290.441 166.995 292.388 165.876 294.23C166.305 292.572 168.018 289.399 168.072 287.982C168.093 287.421 163.809 279.967 163.201 278.397Z"/>
	<path fill="#9A6E44" d="M120.784 139.19C120.968 143.017 117.363 149.731 116.139 153.569C115.324 156.124 114.928 158.599 114.617 161.254L114.308 161.449L114.335 161.8L114.481 161.868L114.529 161.697L114.338 161.806Q114.232 159.489 114.158 157.17C112.849 158.031 111.744 159.154 110.543 160.155C107.769 162.467 104.446 164.655 101.044 165.892C100.176 165.934 99.0547 165.796 98.3284 166.268L98.2964 166.413C97.7151 166.48 97.0103 166.178 96.4523 166.016C96.3289 165.088 96.5881 164.755 96.9831 163.934C97.716 164.101 98.4816 164.233 99.1876 164.492C106.052 163.402 112.855 156.453 115.642 150.368C117.365 146.607 118.195 142.489 120.784 139.19Z"/>
	<path fill="#C8945C" d="M96.9831 163.934C97.716 164.101 98.4816 164.233 99.1876 164.492C99.1611 164.567 99.1371 164.643 99.1081 164.717C98.9921 165.012 98.8489 165.217 98.6618 165.468L98.8004 165.76C99.544 165.796 100.306 165.8 101.044 165.892C100.176 165.934 99.0547 165.796 98.3284 166.268L98.2964 166.413C97.7151 166.48 97.0103 166.178 96.4523 166.016C96.3289 165.088 96.5881 164.755 96.9831 163.934Z"/>
	<path fill="#AE6824" d="M159.484 148.664C161.271 148.748 163.092 148.486 164.911 148.548C166.417 148.631 167.366 148.671 168.587 149.653C167.101 150.285 165.499 150.088 164.172 151.039C162.574 150.824 160.639 150.979 159.317 151.979C158.842 152.338 158.715 152.639 158.514 153.172C158.487 153.244 158.454 153.314 158.426 153.385C158.408 153.428 158.392 153.471 158.376 153.514C149.929 155.968 148.679 161.962 143.846 168.026C143.677 168.238 143.744 168.149 143.58 168.408C142.834 169.046 142.121 169.638 141.272 170.137C140.992 169.297 141.251 168.485 141.461 167.652C142.689 162.78 145.894 159.895 148.368 155.813C148.863 154.996 149.208 154.07 149.555 153.183C152.691 153.032 156.752 150.169 159.484 148.664Z"/>
	<path fill="#9A6E44" d="M187.55 179.985C187.554 180.26 187.521 180.105 187.736 180.422C188.75 179.712 189.245 178.537 190.313 177.923C191.099 177.996 191.368 178.26 191.995 178.707C191.406 181.125 190.059 183.609 188.208 185.294C188.478 184.511 189.033 183.432 188.832 182.613C188.226 182.682 188.013 183.123 187.593 183.552C186.245 184.929 184.695 185.979 182.988 186.866C176.208 190.392 162.369 191.684 156.015 186.729C155.666 186.456 155.448 186.061 155.259 185.668C157.14 185.96 158.972 186.539 160.866 186.826C168.09 187.919 174.02 186.049 180.22 182.554C181.881 180.426 183.753 180.054 186.296 179.616L186.889 180.322L187.55 179.985Z"/>
	<path fill="#401A05" d="M186.296 179.616L186.889 180.322C185.911 182.281 184.321 184.141 182.913 185.81C182.162 184.72 181.328 183.316 180.22 182.554C181.881 180.426 183.753 180.054 186.296 179.616Z"/>
	<path fill="#9A6E44" d="M165.851 144.046C168.144 143.963 168.779 141.428 170.933 141.459C173.878 143.725 177.627 146.327 179.435 149.645C180.608 151.796 181.507 154.104 182.945 156.105C182.497 157.109 182.194 158.242 181.221 158.81C179.82 158.388 178.565 156.079 177.355 155.053L176.893 156.517C173.565 153.579 170.402 152.171 165.968 151.929L165.749 151.76C165.048 151.693 164.726 151.459 164.172 151.039C165.499 150.088 167.101 150.285 168.587 149.653C167.366 148.671 166.417 148.631 164.911 148.548C165.37 148.515 165.918 148.52 166.344 148.337C166.72 148.175 166.758 148.082 166.903 147.73C166.275 147.19 165.772 147.183 164.988 147.029L164.738 146.595C164.776 145.788 165.326 144.653 165.851 144.046Z"/>
	<path fill="#D1A074" d="M165.749 151.76L166.257 151.339C167.831 151.102 169.262 151.281 170.795 151.673C173.387 152.391 175.498 152.984 177.355 155.053L176.893 156.517C173.565 153.579 170.402 152.171 165.968 151.929L165.749 151.76Z"/>
	<path fill="#C8945C" d="M165.851 144.046C168.144 143.963 168.779 141.428 170.933 141.459C169.579 142.385 168.146 143.325 167.788 145.051C167.51 146.396 168.315 148.457 168.921 149.696L168.587 149.653C167.366 148.671 166.417 148.631 164.911 148.548C165.37 148.515 165.918 148.52 166.344 148.337C166.72 148.175 166.758 148.082 166.903 147.73C166.275 147.19 165.772 147.183 164.988 147.029L164.738 146.595C164.776 145.788 165.326 144.653 165.851 144.046Z"/>
	<path fill="#9A6E44" d="M186.294 330.099C192.629 329.777 198.246 331.876 204.408 332.765C213.057 334.013 222.083 334.782 230.807 335.241C235.207 335.472 239.847 334.757 244.185 334.034C245.968 333.737 247.825 333.268 249.626 333.164L249.752 333.675L249.855 333.24L249.87 333.497C248.145 334.245 245.932 334.547 244.613 336L191.526 336C188.636 334.287 187.525 333.367 186.294 330.099Z"/>
	<path fill="#FAD1A5" d="M289.874 336C290.256 333.686 290.926 331.36 291.433 329.065C292.179 325.69 292.816 322.291 293.529 318.908C293.957 316.873 295.328 310.167 296.959 309.107L297.287 309.452C298.895 316.323 299.964 323.271 301.623 330.14C302.081 332.036 302.415 334.201 303.156 336L289.874 336Z"/>
	<path fill="#FAD1A5" d="M316.842 180.253L317.369 180.674C317.382 181.212 317.25 181.535 317.028 182.021C315.943 182.363 314.953 182.948 313.952 183.48C316.595 186.505 319.827 186.96 323.598 187.674C321.733 187.831 319.499 187.909 317.998 189.164C317.854 189.494 317.734 189.551 317.873 189.915C318.665 191.983 325.07 193.515 326.456 195.376C325.005 196.264 324.104 195.719 323.575 197.753C322.951 200.155 326.456 204.721 324.254 206.183C323.653 206.582 322.924 206.883 322.271 207.193C321.038 205.869 320.17 204.746 319.538 203.046C317.303 202.984 314.281 203.019 312.565 201.35C312.005 200.806 311.875 199.834 311.165 199.57C310.536 199.718 310.155 199.95 309.575 199.604C310.369 198.445 311.32 198.604 311.002 196.89C310.77 195.641 309.921 194.112 309.119 193.143C308.477 192.23 307.694 191.231 307.314 190.171C306.252 187.204 309.532 184.805 310.612 182.272L310.732 181.983C312.667 181.374 314.61 180.834 316.572 180.32L316.842 180.253Z"/>
	<path fill="#D1A074" d="M276.135 146.296C275.473 146.171 274.971 145.574 274.547 145.094C274.265 144.776 274.191 144.249 274.239 143.837C274.437 142.121 275.587 140.495 276.942 139.489C276.743 140.586 275.434 141.996 274.778 142.922C274.629 143.588 274.705 144.131 275.055 144.729C275.404 145.325 275.595 145.53 276.249 145.697C276.659 145.512 277.158 145.232 277.615 145.24C278.375 145.253 278.129 145.61 278.583 145.961C279.577 146.728 282.584 147.455 283.89 148.002C285.957 148.868 288.592 150.018 290.477 151.19C291.185 151.63 291.426 152.168 291.947 152.762C292.319 153.187 292.315 153.271 292.88 153.308C293.443 152.747 293.964 152.153 294.488 151.557C292.211 151.182 288.968 149.869 287.215 148.375C286.39 147.672 285.671 146.684 284.675 146.212C282.937 145.387 279.949 145.5 277.995 145.177C276.967 145.007 276.379 144.857 275.759 143.993C275.721 142.84 276.837 141.8 277.159 140.633C277.248 140.309 277.478 140.182 277.723 139.959L277.687 140.204C277.501 141.397 276.01 143.042 276.082 143.914C277.98 145.139 282.98 145.525 285.396 146.091C286.651 147.213 288.19 148.941 289.757 149.569C290.852 150.008 294.385 150.646 295.071 151.493L294.974 151.647C294.469 152.467 294.186 152.945 294.403 153.882C295.364 155.024 298.04 155.641 299.388 156.51C301.105 156.915 302.152 158.032 303.055 159.507C304.344 161.612 305.294 164.602 307.369 166.041L307.091 166.504C307.637 167.169 308.826 167.358 309.655 167.627C309.851 167.199 308.883 164.15 309.558 162.322C310.165 162.756 310.916 165.89 311.049 166.725C311.187 167.59 311.237 169.192 310.75 169.942C310.647 170.1 310.447 170.243 310.305 170.357C310.158 171.001 310.029 171.628 309.958 172.285C310.029 172.299 310.098 172.315 310.169 172.327C312.081 172.653 315.499 171.266 317.043 172.188C316.971 172.662 316.807 172.709 316.414 172.992C314.141 174.629 311.016 174.402 309.273 176.924C308.715 177.731 308.701 178.606 308.231 179.373L307.886 179.062C307.921 176.891 308.29 175.105 307.925 172.872Q307.548 172.423 307.155 171.988C306.489 171.263 306.145 171.228 305.212 171.195L304.672 172.108C302.889 172.048 301.298 171.374 299.544 171.244C298.567 171.171 298.266 171.483 297.579 172.08L296.626 171.054C296.994 170.811 297.462 170.394 297.584 169.966C298.513 166.724 292.238 158.055 290.535 155.291C289.594 154.705 289.02 153.167 288.083 152.446C285.957 150.813 282.709 150.161 280.243 149.116C279.354 148.595 278.827 148.08 278.187 147.281C277.428 147.142 276.791 146.686 276.135 146.296Z"/>
	<path fill="#E8B98D" d="M299.388 156.51C301.105 156.915 302.152 158.032 303.055 159.507C304.344 161.612 305.294 164.602 307.369 166.041L307.091 166.504C307.637 167.169 308.826 167.358 309.655 167.627C309.851 167.199 308.883 164.15 309.558 162.322C310.165 162.756 310.916 165.89 311.049 166.725C311.187 167.59 311.237 169.192 310.75 169.942C310.647 170.1 310.447 170.243 310.305 170.357C310.067 170.243 310.169 170.279 309.931 170.212C309.695 170.145 309.464 170.074 309.23 170.002C309.162 169.981 309.093 169.964 309.026 169.941C305.554 168.785 301.036 159.878 299.388 156.51Z"/>
	<path fill="#D08937" d="M292.779 155.042C297.528 156.317 303.203 167.653 307.243 170.852C308.033 171.477 309.044 171.874 309.958 172.285C310.029 172.299 310.098 172.315 310.169 172.327C312.081 172.653 315.499 171.266 317.043 172.188C316.971 172.662 316.807 172.709 316.414 172.992C314.141 174.629 311.016 174.402 309.273 176.924C308.715 177.731 308.701 178.606 308.231 179.373L307.886 179.062C307.921 176.891 308.29 175.105 307.925 172.872Q307.548 172.423 307.155 171.988C306.489 171.263 306.145 171.228 305.212 171.195C301.836 168.526 299.855 164.742 297.464 161.264C295.994 159.126 294.395 157.071 292.779 155.042Z"/>
	<path fill="#7D4D25" d="M278.187 147.281C282.804 147.684 288.368 150.083 291.393 153.642C291.482 153.747 291.566 153.855 291.65 153.963L292.779 155.042C294.395 157.071 295.994 159.126 297.464 161.264C299.855 164.742 301.836 168.526 305.212 171.195L304.672 172.108C302.889 172.048 301.298 171.374 299.544 171.244C298.567 171.171 298.266 171.483 297.579 172.08L296.626 171.054C296.994 170.811 297.462 170.394 297.584 169.966C298.513 166.724 292.238 158.055 290.535 155.291C289.594 154.705 289.02 153.167 288.083 152.446C285.957 150.813 282.709 150.161 280.243 149.116C279.354 148.595 278.827 148.08 278.187 147.281Z"/>
	<path fill="#9A6E44" d="M91.1663 184.053C91.7828 183.283 92.4893 182.639 93.214 181.974C93.3036 183.516 93.4827 185.081 93.0867 186.591C92.6805 188.14 91.8868 189.484 91.0107 190.814C90.9948 192.396 91.5243 200.27 91.2538 201.013C91.0908 201.461 90.3218 201.952 90.2049 202.395C90.1988 202.419 90.2823 202.725 90.3037 202.777C90.6152 203.546 91.4766 204.101 91.7064 204.914C92.4037 207.382 91.7218 216.744 92.9591 218.342C93.5976 219.167 94.2701 219.985 94.7571 220.911C94.3942 221.49 93.7674 222.324 93.6771 223.001C93.4867 224.429 94.24 226.194 94.3586 227.63C94.437 228.579 94.302 229.623 94.2262 230.573C94.7651 231.453 95.3425 232.326 95.8366 233.23C95.6642 234.468 95.4697 235.692 95.2228 236.918C96.4077 239.381 97.7144 241.856 98.6769 244.414C99.9082 247.686 99.9957 250.966 102.205 253.819C102.325 255.56 102.381 257.333 102.699 259.051C107.944 263.625 109.568 270.233 113.137 275.999C115.035 279.065 117.371 281.849 119.413 284.818C120.776 286.799 121.866 288.954 123.168 290.974C123.924 292.147 125.317 293.124 126.318 294.119C128.132 295.926 131.343 299.939 132.145 302.251C132.283 302.939 132.745 303.346 132.777 303.931C132.095 303.675 131.811 302.996 131.105 302.886C126.917 300.227 121.602 291.951 118.451 287.884C116.582 285.2 115.704 281.65 113.074 279.587C112.695 278.911 111.991 278.459 111.418 277.949C108.103 272.324 100.468 262.566 100.493 256.104C96.6501 251.381 97.1847 248.625 95.3493 243.349C94.8045 241.783 93.7548 240.382 93.366 238.763C92.5039 235.172 93.4996 234.518 91.3635 230.859C93.5634 223.637 90.1221 216.448 88.1708 209.568L89.3364 206.521C89.0418 205.281 88.2759 204.025 88.1262 202.777C87.9684 201.462 88.9919 199.895 89.0712 198.521C89.2101 196.117 88.3583 193.208 88.8176 190.925C89.2669 188.691 90.6147 186.436 91.1663 184.053Z"/>
	<defs>
		<linearGradient id="gradient_3" gradientUnits="userSpaceOnUse" x1="110.44724" y1="305.74219" x2="98.726761" y2="294.42581">
			<stop offset="0" stop-color="#DAB493"/>
			<stop offset="1" stop-color="#F4DCBE"/>
		</linearGradient>
	</defs>
	<path fill="url(#gradient_3)" d="M113.074 279.587C115.704 281.65 116.582 285.2 118.451 287.884C116.246 292.014 113.609 295.889 111.26 299.935C108.511 304.671 102.298 318.349 96.6394 320.052C96.0025 320.244 95.688 320.265 95.0852 320.021L94.9507 319.602C96.4173 310.319 99.1309 301.711 103.006 293.157Q105.763 288.496 108.757 283.984C110.043 282.153 111.207 280.835 113.074 279.587Z"/>
	<path fill="#C8945C" d="M310.257 152.069C316.879 154.045 333.352 162.535 336.646 168.352C336.765 168.563 336.82 168.765 336.857 169.002C336.849 169.102 336.846 169.203 336.833 169.302C336.68 170.443 334.121 172.082 334.906 173.178C336.335 175.176 343.174 176.241 344.204 178.825C340.663 178.733 337.066 178.5 333.532 178.783C333.523 179.527 333.662 181.026 333.303 181.658C333.228 181.343 333.221 181.425 333.233 181.161C333.276 180.288 333.483 179.48 332.944 178.714C330.435 182.247 331.584 181.662 330.728 185.332L330.399 185.484C328.978 184.29 332.478 178.129 331.471 175.629C331.263 175.114 331.186 175.094 330.679 174.892C329.971 175.24 329.79 175.668 329.37 176.301C329.295 176.656 329.242 176.931 329.097 177.264L328.594 176.932C328.147 177.167 327.696 177.395 327.256 177.643C325.608 178.571 323.615 177.892 322.03 178.836C320.219 179.138 318.453 179.301 316.842 180.253L316.572 180.32C314.61 180.834 312.667 181.374 310.732 181.983C310.686 181.736 310.641 181.485 310.576 181.242C310.279 180.137 309.142 179.877 308.231 179.373C308.701 178.606 308.715 177.731 309.273 176.924C311.016 174.402 314.141 174.629 316.414 172.992C316.807 172.709 316.971 172.662 317.043 172.188C315.499 171.266 312.081 172.653 310.169 172.327C310.098 172.315 310.029 172.299 309.958 172.285C310.029 171.628 310.158 171.001 310.305 170.357C310.447 170.243 310.647 170.1 310.75 169.942C311.237 169.192 311.187 167.59 311.049 166.725C310.916 165.89 310.165 162.756 309.558 162.322C308.883 164.15 309.851 167.199 309.655 167.627C308.826 167.358 307.637 167.169 307.091 166.504L307.369 166.041C308.85 161.362 307.109 156.274 310.257 152.069Z"/>
	<path fill="#D1A074" d="M308.231 179.373C310.202 178.647 313.005 178.437 314.975 179.302C315.3 179.445 315.582 179.647 315.873 179.846C316.106 180.005 316.341 180.159 316.572 180.32C314.61 180.834 312.667 181.374 310.732 181.983C310.686 181.736 310.641 181.485 310.576 181.242C310.279 180.137 309.142 179.877 308.231 179.373Z"/>
	<path fill="#D1A074" d="M331.725 170.002C333.146 170.041 334.586 170.036 336 170.191C334.555 170.715 332.626 171.183 331.889 172.664C331.209 174.033 332.911 177.079 332.944 178.714C330.435 182.247 331.584 181.662 330.728 185.332L330.399 185.484C328.978 184.29 332.478 178.129 331.471 175.629C331.263 175.114 331.186 175.094 330.679 174.892C329.971 175.24 329.79 175.668 329.37 176.301C328.932 174.753 331.117 171.559 331.725 170.002Z"/>
	<defs>
		<linearGradient id="gradient_4" gradientUnits="userSpaceOnUse" x1="224.18674" y1="274.30862" x2="240.73451" y2="312.52231">
			<stop offset="0" stop-color="#43250C"/>
			<stop offset="1" stop-color="#754724"/>
		</linearGradient>
	</defs>
	<path fill="url(#gradient_4)" d="M250.26 297.511C250.724 297.521 250.922 297.539 251.322 297.267C250.986 294.942 230.85 289.922 227.394 284.356C225.992 282.098 225.505 278.215 226.123 275.659C227.099 271.624 232.13 270.84 235.469 269.523C236.95 268.939 238.306 268.183 239.655 267.344C242.131 270.31 242.659 276.61 244.994 280.425C247.155 284.443 250.974 287.448 252.727 291.659C253.429 293.345 252.871 295.852 254.491 296.981C255.599 297.271 256.498 296.659 257.56 296.42C262.277 295.36 265.684 295.015 270.02 292.481C271.092 291.854 272.691 290.948 273.486 289.999C274.193 289.59 274.663 289.03 275.204 288.432L276.055 289.332L275.84 289.514C273.876 291.194 272.589 293.297 270.318 294.72C268.153 296.077 265.584 297.018 263.132 297.721C261.573 298.167 259.762 298.204 258.411 299.161C257.079 300.104 253.292 305.23 251.244 307.077C242.468 314.994 228.611 315.668 217.41 314.902C203.891 313.977 196.672 309.534 187.99 299.535L187.687 299.185L188.663 299.214C190.032 300.753 191.396 302.32 192.945 303.681C202.109 311.733 214.649 314.453 226.571 313.685C240.948 312.76 248.118 308.772 257.543 298.014C255.636 298.013 253.231 297.393 251.449 297.676C250.943 297.756 250.737 297.702 250.26 297.511Z"/>
	<defs>
		<linearGradient id="gradient_5" gradientUnits="userSpaceOnUse" x1="223.0995" y1="297.90063" x2="223.45679" y2="313.30896">
			<stop offset="0" stop-color="#9A7458"/>
			<stop offset="1" stop-color="#B1906C"/>
		</linearGradient>
	</defs>
	<path fill="url(#gradient_5)" d="M233.022 304.203C233.186 304.055 233.352 303.91 233.525 303.772C236.59 301.333 241.29 301.269 244.832 299.703C246.062 299.16 248.774 297.205 249.945 297.334L249.9 297.488L250.26 297.511C250.737 297.702 250.943 297.756 251.449 297.676C253.231 297.393 255.636 298.013 257.543 298.014C248.118 308.772 240.948 312.76 226.571 313.685C214.649 314.453 202.109 311.733 192.945 303.681C191.396 302.32 190.032 300.753 188.663 299.214C192.786 299.457 196.897 297.381 200.951 298.726C203.219 299.479 205.046 301.285 207.265 302.014C209.332 302.693 211.1 302.138 213.209 303.214C215.163 304.211 227.019 302.561 230.532 303.21C231.401 303.371 232.235 303.815 233.022 304.203Z"/>
	<path fill="#FAD1A5" d="M190.118 116.169Q190.645 115.866 191.181 115.578C192.075 115.105 192.607 115.005 193.569 115.335C198.921 117.17 204.67 125.079 207.047 130.007C207.809 131.586 209.603 135.403 208.938 137.017C208.76 137.451 208.627 137.461 208.224 137.631Q208.124 137.49 208.02 137.352C206.423 135.241 204.793 137.007 202.722 136.301C198.035 134.704 193.54 131.55 189.366 128.911C188.229 129.015 187.095 129.18 185.963 129.326C185.546 129.97 186.254 130.496 186.104 131.266C185.345 130.972 184.983 130.339 184.466 129.723C180.394 129.942 177.15 130.514 173.461 132.311C173.104 132.141 172.781 132.004 172.399 131.894C169.795 133.762 167.649 139.846 165.149 142.583L164.923 142.829C165.216 143.208 165.621 143.633 165.851 144.046C165.326 144.653 164.776 145.788 164.738 146.595L164.988 147.029C165.772 147.183 166.275 147.19 166.903 147.73C166.758 148.082 166.72 148.175 166.344 148.337C165.918 148.52 165.37 148.515 164.911 148.548C163.092 148.486 161.271 148.748 159.484 148.664C158.983 148.238 158.674 148.12 158.03 148.007C157.678 148.129 157.824 148.109 157.45 148.115C156.417 148.131 154.971 146.427 154.257 145.72Q150.84 147.817 147.453 149.961C146.479 148.626 143.595 146.694 143.464 146.415C142.974 145.375 143.849 143.336 144.167 142.261C147.711 139.188 152.733 136.961 157.353 136.344C160.319 135.948 166.812 136.601 169.102 135.096C170.111 134.433 170.687 133.003 170.933 131.873C170.57 130.947 169.679 131.246 169.12 130.383C169.101 129.754 169.227 129.249 169.437 128.663C171.475 122.956 178.496 117.554 183.87 115.062C185.954 115.177 188.073 115.745 190.118 116.169Z"/>
	<path fill="#D1A074" d="M162.455 146.232C163.062 144.886 163.803 143.798 164.923 142.829C165.216 143.208 165.621 143.633 165.851 144.046C165.326 144.653 164.776 145.788 164.738 146.595L164.988 147.029C164.022 146.896 163.212 146.852 162.455 146.232Z"/>
	<path fill="#E8B98D" d="M158.03 148.007C158.217 147.52 158.373 147.102 158.754 146.731C159.589 145.915 161.363 146.197 162.455 146.232C163.212 146.852 164.022 146.896 164.988 147.029C165.772 147.183 166.275 147.19 166.903 147.73C166.758 148.082 166.72 148.175 166.344 148.337C165.918 148.52 165.37 148.515 164.911 148.548C163.092 148.486 161.271 148.748 159.484 148.664C158.983 148.238 158.674 148.12 158.03 148.007Z"/>
	<path fill="#C8945C" d="M305.212 171.195C306.145 171.228 306.489 171.263 307.155 171.988Q307.548 172.423 307.925 172.872C308.29 175.105 307.921 176.891 307.886 179.062L308.231 179.373C309.142 179.877 310.279 180.137 310.576 181.242C310.641 181.485 310.686 181.736 310.732 181.983L310.612 182.272C309.532 184.805 306.252 187.204 307.314 190.171C307.694 191.231 308.477 192.23 309.119 193.143L307.707 192.997C306.703 192.993 305.205 193.116 304.318 192.629C303.672 192.276 303.469 191.677 303.313 191.002C303.131 189.843 303.022 188.709 302.415 187.681C301.451 188.946 302.411 191.354 301.305 192.273L300.901 192.086C300.374 193.28 300.109 194.779 299.107 195.582C299.08 195.63 299.052 195.677 299.025 195.725C297.686 198.131 297.231 200.912 295.598 203.202C293.27 206.467 289.313 209.569 287.437 212.568L287.237 212.775C287.162 212.784 287.086 212.795 287.01 212.804C281.523 213.443 280.315 206.687 276.717 203.878C277.305 203.054 277.924 202.526 278.41 201.587L277.015 201.444C276.462 201.509 275.65 201.106 275.221 200.769C273.96 199.78 274.518 198.222 274.247 196.877C274.101 196.146 272.051 195.063 271.411 194.619L271.565 193.128L272.113 192.321C272.153 189.934 268.347 189.165 266.982 187.601C266.65 187.221 266.529 187.059 266.049 186.909L265.429 186.038C267.081 185.868 268.876 186.208 270.477 185.755L271.101 184.939C274.199 185.155 277.633 185.214 280.712 184.808C286.96 183.984 289.695 180.351 293.297 175.684C294.661 174.441 295.974 173.344 297.486 172.287L297.579 172.08C298.266 171.483 298.567 171.171 299.544 171.244C301.298 171.374 302.889 172.048 304.672 172.108L305.212 171.195Z"/>
	<path fill="#D1A074" d="M305.499 179.998L306.769 179.942L306.837 180.334C305.745 181.406 304.867 184.156 303.528 184.65C302.889 184.886 301.89 185.082 301.249 184.823C301.706 183.926 302.92 183.722 303.606 182.984C304.22 182.322 304.594 181 305.499 179.998Z"/>
	<path fill="#D1A074" d="M302.415 187.681C302.316 187.151 302.431 187.069 302.753 186.629C302.968 186.335 303.15 186.231 303.466 186.069L303.782 186.225C303.88 187.525 303.684 188.767 303.876 190.064C304.176 190.773 304.315 191.369 305.107 191.666C305.931 191.975 307.325 192.039 307.684 192.88C307.7 192.917 307.699 192.958 307.707 192.997C306.703 192.993 305.205 193.116 304.318 192.629C303.672 192.276 303.469 191.677 303.313 191.002C303.131 189.843 303.022 188.709 302.415 187.681Z"/>
	<path fill="#E8B98D" d="M289.883 183.034C290.748 183.014 291.545 183.041 292.38 183.304C293.592 183.685 295.159 184.194 295.771 185.361L295.523 185.802C295.079 186.021 294.753 186.195 294.24 186.133C293.849 186.086 293.454 186.072 293.061 186.045C292.01 186.01 290.814 186.091 289.853 185.64L289.832 185.189C290.824 184.575 291.835 185.045 292.873 184.547L293.009 184.16C291.968 183.702 291.17 184.252 290.141 183.77L289.883 183.034Z"/>
	<path fill="#E8B98D" d="M282.749 187.366C285.07 188.538 288.146 190.353 288.969 193.011C289.01 193.146 289.043 193.284 289.075 193.421L288.846 193.768C287.415 193.595 286.108 192.369 285.065 191.435C284.119 189.952 282.733 189.374 282.749 187.366Z"/>
	<path fill="#AE6824" d="M305.212 171.195C306.145 171.228 306.489 171.263 307.155 171.988Q307.548 172.423 307.925 172.872C308.29 175.105 307.921 176.891 307.886 179.062C307.505 179.331 307.061 179.579 306.769 179.942L305.499 179.998C305.48 179.963 305.453 179.93 305.441 179.892C305.375 179.682 305.414 179.507 305.511 179.319C306.022 178.336 306.22 176.893 306.184 175.782C306.148 174.657 306.001 173.825 305.167 173L304.672 172.108L305.212 171.195Z"/>
	<path fill="#E8B98D" d="M297.579 172.08C298.266 171.483 298.567 171.171 299.544 171.244C301.298 171.374 302.889 172.048 304.672 172.108L305.167 173C304.472 174.393 302.918 175.861 301.899 177.08C301.255 176.456 300.656 175.77 300.045 175.112C299.98 174.022 299.944 172.945 299.669 171.883L299.39 171.807C299.012 172.401 298.733 173.023 298.044 173.282C297.628 172.947 297.636 172.787 297.486 172.287L297.579 172.08Z"/>
	<path fill="#D08937" d="M297.662 192.88C298.311 191.763 299.151 189.8 300.409 189.42L300.624 189.635C300.896 190.51 300.934 191.181 300.901 192.086C300.374 193.28 300.109 194.779 299.107 195.582L298.973 194.488C298.231 193.968 297.549 194.017 296.678 194.162C293.828 194.635 290.413 195.937 287.984 197.476C287.686 198.247 287.656 198.455 286.997 198.93C286.102 199.039 285.39 198.661 284.653 198.178C283.966 197.949 283.403 197.611 282.794 197.229C282.622 196.369 282.272 195.558 282.076 194.704C281.916 194.013 281.943 193.767 282.318 193.175C283.05 192.918 283.606 193.172 284.312 193.393L287.114 194.951C287.535 194.922 287.958 194.875 288.379 194.854C291.576 194.698 294.412 193.067 297.662 192.88Z"/>
	<path fill="#C8945C" d="M283.828 195.052C285.411 195.709 286.632 196.405 287.984 197.476C287.686 198.247 287.656 198.455 286.997 198.93C286.102 199.039 285.39 198.661 284.653 198.178C284.638 197.175 284.131 196.012 283.828 195.052Z"/>
	<path fill="#D1A074" d="M270.477 185.755C271.586 186.146 272.687 186.526 273.858 186.674C276.088 186.956 281.155 186.379 282.749 187.366C282.733 189.374 284.119 189.952 285.065 191.435C285.034 192.126 285.121 192.718 284.721 193.3L284.312 193.393C283.606 193.172 283.05 192.918 282.318 193.175C281.943 193.767 281.916 194.013 282.076 194.704C282.272 195.558 282.622 196.369 282.794 197.229L281.167 196.5C280.152 196.846 279.35 197.158 278.859 198.203C278.387 199.206 278.409 200.5 278.41 201.587L277.015 201.444C276.462 201.509 275.65 201.106 275.221 200.769C273.96 199.78 274.518 198.222 274.247 196.877C274.101 196.146 272.051 195.063 271.411 194.619L271.565 193.128L272.113 192.321C272.153 189.934 268.347 189.165 266.982 187.601C266.65 187.221 266.529 187.059 266.049 186.909L265.429 186.038C267.081 185.868 268.876 186.208 270.477 185.755Z"/>
	<path fill="#D08937" d="M277.015 201.444C276.228 199.843 272.693 192.732 272.7 191.299C273.027 191.113 273.003 191.055 273.41 191.12C275.606 191.465 279.828 194.69 281.167 196.5C280.152 196.846 279.35 197.158 278.859 198.203C278.387 199.206 278.409 200.5 278.41 201.587L277.015 201.444Z"/>
	<path fill="#9A6E44" d="M287.984 197.476C290.413 195.937 293.828 194.635 296.678 194.162C297.549 194.017 298.231 193.968 298.973 194.488L299.107 195.582C299.08 195.63 299.052 195.677 299.025 195.725C297.686 198.131 297.231 200.912 295.598 203.202C293.27 206.467 289.313 209.569 287.437 212.568L287.237 212.775C287.162 212.784 287.086 212.795 287.01 212.804C281.523 213.443 280.315 206.687 276.717 203.878C277.305 203.054 277.924 202.526 278.41 201.587C278.409 200.5 278.387 199.206 278.859 198.203C279.35 197.158 280.152 196.846 281.167 196.5L282.794 197.229C283.403 197.611 283.966 197.949 284.653 198.178C285.39 198.661 286.102 199.039 286.997 198.93C287.656 198.455 287.686 198.247 287.984 197.476Z"/>
	<defs>
		<linearGradient id="gradient_6" gradientUnits="userSpaceOnUse" x1="156.63063" y1="154.42903" x2="171.95744" y2="186.05002">
			<stop offset="0" stop-color="#110F0D"/>
			<stop offset="1" stop-color="#271813"/>
		</linearGradient>
	</defs>
	<path fill="url(#gradient_6)" d="M158.376 153.514C158.392 153.471 158.408 153.428 158.426 153.385C158.454 153.314 158.487 153.244 158.514 153.172C158.715 152.639 158.842 152.338 159.317 151.979C160.639 150.979 162.574 150.824 164.172 151.039C164.726 151.459 165.048 151.693 165.749 151.76L165.968 151.929C170.402 152.171 173.565 153.579 176.893 156.517C178.885 159.238 180.994 161.927 182.858 164.735C183.321 168.823 186.346 172.712 187.217 177.292C186.912 178.055 186.547 178.836 186.296 179.616C183.753 180.054 181.881 180.426 180.22 182.554C174.02 186.049 168.09 187.919 160.866 186.826C158.972 186.539 157.14 185.96 155.259 185.668C154.554 185.425 153.947 185.109 153.322 184.708C149.342 182.157 146.07 177.321 145.034 172.686C144.962 171.203 144.202 169.729 143.58 168.408C143.744 168.149 143.677 168.238 143.846 168.026C148.679 161.962 149.929 155.968 158.376 153.514Z"/>
	<path fill="#564139" d="M181.535 174.881C181.894 175.287 182.013 175.559 182.043 176.117C182.12 177.552 180.352 179.007 179.404 179.943C179.21 179.693 179.085 179.555 179.068 179.22C178.997 177.822 180.701 175.882 181.535 174.881Z"/>
	<path fill="#7D4D25" d="M158.376 153.514C158.392 153.471 158.408 153.428 158.426 153.385C158.454 153.314 158.487 153.244 158.514 153.172C158.715 152.639 158.842 152.338 159.317 151.979C160.639 150.979 162.574 150.824 164.172 151.039C164.726 151.459 165.048 151.693 165.749 151.76L165.968 151.929C163.93 152.088 160.503 153.029 158.376 153.514Z"/>
	<path fill="#FEFEFE" d="M169.562 158.975C170.593 159.047 171.767 159.137 172.728 159.534C173.288 159.766 173.862 160.156 174.049 160.764C174.306 161.597 173.87 162.335 173.496 163.047C172.281 163.264 171.047 163.325 169.927 162.696C169.375 162.386 169.001 161.915 168.874 161.3C168.7 160.452 169.098 159.652 169.562 158.975Z"/>
	<defs>
		<linearGradient id="gradient_7" gradientUnits="userSpaceOnUse" x1="267.74915" y1="151.43469" x2="281.95438" y2="184.41931">
			<stop offset="0" stop-color="#020000"/>
			<stop offset="1" stop-color="#26160C"/>
		</linearGradient>
	</defs>
	<path fill="url(#gradient_7)" d="M264.458 145.609C265.245 145.83 265.915 145.997 266.745 145.97C267.369 145.82 267.32 145.805 267.866 146.138C268.105 147.079 268.223 148.145 268.958 148.799C269.503 148.767 269.625 148.841 269.999 148.385C270.27 148.056 270.331 147.749 270.751 147.556C272.58 147.773 274.434 146.896 276.135 146.296C276.791 146.686 277.428 147.142 278.187 147.281C278.827 148.08 279.354 148.595 280.243 149.116C282.709 150.161 285.957 150.813 288.083 152.446C289.02 153.167 289.594 154.705 290.535 155.291C292.238 158.055 298.513 166.724 297.584 169.966C297.462 170.394 296.994 170.811 296.626 171.054L297.579 172.08L297.486 172.287C295.974 173.344 294.661 174.441 293.297 175.684C289.695 180.351 286.96 183.984 280.712 184.808C277.633 185.214 274.199 185.155 271.101 184.939L270.477 185.755C268.876 186.208 267.081 185.868 265.429 186.038L264.647 185.344C262.859 185.006 260.011 184.137 258.621 183.023C257.476 182.875 256.792 182.763 255.86 182.024C254.386 180.738 253.779 179.17 252.987 177.442C253.299 176.445 253.244 175.504 253.212 174.473C253.198 173.37 253.356 172.789 253.824 171.811C254.355 170.381 253.223 169.344 253.73 167.62C256.811 165.039 258.604 161.594 260.408 158.079C260.846 155.259 261.143 152.471 261.341 149.623C262.314 148.207 263.336 146.908 264.458 145.609Z"/>
	<path fill="#9A6E44" d="M296.626 171.054L297.579 172.08L297.486 172.287C295.974 173.344 294.661 174.441 293.297 175.684C293.645 173.925 295.385 172.27 296.626 171.054Z"/>
	<path fill="#564139" d="M262.199 173.374C262.259 173.395 262.322 173.41 262.38 173.436C264.15 174.25 266.5 177.932 267.067 179.789C266.138 179.547 265.154 178.903 264.424 178.284C262.888 176.978 262.335 175.32 262.199 173.374Z"/>
	<path fill="#FEFEFE" d="M276.087 155.503Q276.452 155.487 276.817 155.494C278.037 155.522 279.714 155.95 280.508 156.975C280.905 157.486 280.789 157.805 280.662 158.367C280.125 158.996 279.647 159.329 278.911 159.699C278.225 159.692 277.519 159.636 276.84 159.536C275.975 159.41 274.689 158.941 274.2 158.195C273.9 157.738 273.999 157.528 274.074 157.038C274.589 156.221 275.26 155.923 276.087 155.503Z"/>
	<path fill="#7D4D25" d="M257.01 179.779L257.159 179.836C259.661 183.109 267.851 182.691 271.101 184.939L270.477 185.755C268.876 186.208 267.081 185.868 265.429 186.038L264.647 185.344C262.859 185.006 260.011 184.137 258.621 183.023C258.347 182.838 258.063 182.656 257.805 182.45C256.969 181.784 257.082 180.773 257.01 179.779Z"/>
	<path fill="#7D4D25" d="M266.745 145.97C267.369 145.82 267.32 145.805 267.866 146.138C268.105 147.079 268.223 148.145 268.958 148.799C269.503 148.767 269.625 148.841 269.999 148.385C270.27 148.056 270.331 147.749 270.751 147.556C272.58 147.773 274.434 146.896 276.135 146.296C276.791 146.686 277.428 147.142 278.187 147.281C278.827 148.08 279.354 148.595 280.243 149.116C275.282 148.805 271.459 148.928 267.163 151.77C266.793 151.498 266.389 151.292 266.006 151.04C265.374 150.626 265.086 150.32 264.936 149.567C264.752 148.64 266.223 146.78 266.745 145.97Z"/>
	<path fill="#532A0F" d="M264.458 145.609C265.245 145.83 265.915 145.997 266.745 145.97C266.223 146.78 264.752 148.64 264.936 149.567C265.086 150.32 265.374 150.626 266.006 151.04C266.389 151.292 266.793 151.498 267.163 151.77C263.864 154.485 261.301 157.444 259.978 161.583C260.044 160.44 260.62 159.187 260.408 158.079C260.846 155.259 261.143 152.471 261.341 149.623C262.314 148.207 263.336 146.908 264.458 145.609Z"/>
	<path fill="#7D4D25" d="M253.73 167.62C256.811 165.039 258.604 161.594 260.408 158.079C260.62 159.187 260.044 160.44 259.978 161.583C258.238 167.742 257.03 173.413 257.159 179.836L257.01 179.779C257.082 180.773 256.969 181.784 257.805 182.45C258.063 182.656 258.347 182.838 258.621 183.023C257.476 182.875 256.792 182.763 255.86 182.024C254.386 180.738 253.779 179.17 252.987 177.442C253.299 176.445 253.244 175.504 253.212 174.473C253.198 173.37 253.356 172.789 253.824 171.811C254.355 170.381 253.223 169.344 253.73 167.62Z"/>
	<path fill="#9A6E44" d="M253.824 171.811C254.355 170.381 253.223 169.344 253.73 167.62C254.812 168.342 255.367 168.75 255.652 170.092C255.749 170.544 255.715 170.973 255.647 171.426L255.25 171.996C254.574 172.109 254.443 172.043 253.824 171.811Z"/>
	<path fill="#9A6E44" d="M253.212 174.473C255.32 175.806 255.194 177.746 256.732 179.459C256.791 179.524 256.846 179.594 256.904 179.66C256.938 179.7 256.974 179.739 257.01 179.779C257.082 180.773 256.969 181.784 257.805 182.45C258.063 182.656 258.347 182.838 258.621 183.023C257.476 182.875 256.792 182.763 255.86 182.024C254.386 180.738 253.779 179.17 252.987 177.442C253.299 176.445 253.244 175.504 253.212 174.473Z"/>
	<path fill="#532A0F" d="M199.243 227.628C203.176 224.12 208.827 222.031 214.002 221.378C217.057 220.993 220.144 220.982 223.218 220.978C232.075 220.968 241.524 221.702 248.782 227.338C253.2 232.96 255.398 239.048 254.497 246.288Q254.319 247.619 254.059 248.936L252.867 251.452C250.484 254.774 248.493 258.66 245.829 261.73Q242.778 264.577 239.655 267.344C238.306 268.183 236.95 268.939 235.469 269.523C232.13 270.84 227.099 271.624 226.123 275.659C225.505 278.215 225.992 282.098 227.394 284.356C230.85 289.922 250.986 294.942 251.322 297.267C250.922 297.539 250.724 297.521 250.26 297.511L249.9 297.488L249.945 297.334C248.774 297.205 246.062 299.16 244.832 299.703C241.29 301.269 236.59 301.333 233.525 303.772C233.352 303.91 233.186 304.055 233.022 304.203C232.235 303.815 231.401 303.371 230.532 303.21C227.019 302.561 215.163 304.211 213.209 303.214C211.1 302.138 209.332 302.693 207.265 302.014C205.046 301.285 203.219 299.479 200.951 298.726C196.897 297.381 192.786 299.457 188.663 299.214L187.687 299.185C185.554 299.145 182.57 297.638 180.561 296.897C180.102 296.447 179.827 296.152 179.622 295.536C180.2 295.071 180.835 295.201 181.562 295.175C184.323 296.398 192.087 297.276 194.944 296.384C195.67 296.168 196.434 296.074 197.18 295.949C196.99 294.27 197.987 292.619 198.164 290.917C199.888 288.348 201.123 285.249 202.671 282.546C205.219 278.095 208.161 273.728 210.883 269.372Q207.572 267.478 204.625 265.057C200.799 261.879 192.106 254.382 191.636 249.189C190.287 244.949 191.824 237.718 193.788 233.854L196.206 230.755C196.877 229.693 197.86 228.731 198.685 227.78L199.243 227.628Z"/>
	<path fill="#6D3503" d="M193.446 237.83C193.457 238.648 193.415 238.809 193.88 239.465C195.541 240.473 197.634 239.443 199.448 239.457C199.411 239.61 199.412 239.62 199.352 239.788C198.789 241.378 195.475 244.257 193.993 244.896C193.311 245.19 193.123 245.282 192.444 245C191.705 243.477 193.064 239.53 193.446 237.83Z"/>
	<defs>
		<linearGradient id="gradient_8" gradientUnits="userSpaceOnUse" x1="222.91432" y1="245.99437" x2="225.94052" y2="221.53383">
			<stop offset="0" stop-color="#884E26"/>
			<stop offset="1" stop-color="#B96E38"/>
		</linearGradient>
	</defs>
	<path fill="url(#gradient_8)" d="M199.243 227.628C199.288 227.637 199.332 227.648 199.377 227.653C200.1 227.746 208.773 222.928 210.972 222.342C217.804 220.52 234.392 221.327 241.119 223.718C244.245 224.829 247.374 226.798 249.514 229.356C252.745 233.218 254.341 239.281 253.863 244.261C253.671 246.261 253.224 248.432 252.47 250.295C251.354 249.972 250.139 249.815 248.995 249.596C248.471 249.145 247.906 248.682 247.578 248.061C246.298 245.64 246.924 241.637 247.637 239.11C239.879 235.322 231.346 238.008 223.423 235.025C215.945 238.089 207.276 237.605 199.448 239.457C197.634 239.443 195.541 240.473 193.88 239.465C193.415 238.809 193.457 238.648 193.446 237.83C193.773 235.583 196.343 232.219 196.206 230.755C196.877 229.693 197.86 228.731 198.685 227.78L199.243 227.628Z"/>
	<defs>
		<linearGradient id="gradient_9" gradientUnits="userSpaceOnUse" x1="219.20689" y1="233.01175" x2="237.4906" y2="224.09309">
			<stop offset="0" stop-color="#C18560"/>
			<stop offset="1" stop-color="#D9A17F"/>
		</linearGradient>
	</defs>
	<path fill="url(#gradient_9)" d="M224.166 224.083C227.17 223.603 231.305 223.734 234.173 224.608C237.488 225.619 239.693 227.696 241.315 230.703Q237.816 230.75 234.323 230.948C230.794 230.993 220.21 231.563 217.662 229.972C217.245 229.712 216.904 229.302 216.81 228.82C216.679 228.147 216.997 227.594 217.391 227.071C219.038 224.886 221.602 224.436 224.166 224.083Z"/>
	<path fill="#2E0D03" d="M199.243 227.628C203.176 224.12 208.827 222.031 214.002 221.378C217.057 220.993 220.144 220.982 223.218 220.978C232.075 220.968 241.524 221.702 248.782 227.338C253.2 232.96 255.398 239.048 254.497 246.288Q254.319 247.619 254.059 248.936L252.867 251.452C250.484 254.774 248.493 258.66 245.829 261.73Q242.778 264.577 239.655 267.344C238.306 268.183 236.95 268.939 235.469 269.523C232.13 270.84 227.099 271.624 226.123 275.659C225.505 278.215 225.992 282.098 227.394 284.356C230.85 289.922 250.986 294.942 251.322 297.267C250.922 297.539 250.724 297.521 250.26 297.511L249.9 297.488L249.945 297.334C248.774 297.205 246.062 299.16 244.832 299.703C241.29 301.269 236.59 301.333 233.525 303.772C233.352 303.91 233.186 304.055 233.022 304.203C232.235 303.815 231.401 303.371 230.532 303.21C227.019 302.561 215.163 304.211 213.209 303.214C211.1 302.138 209.332 302.693 207.265 302.014C205.046 301.285 203.219 299.479 200.951 298.726C196.897 297.381 192.786 299.457 188.663 299.214L187.687 299.185C185.554 299.145 182.57 297.638 180.561 296.897C180.102 296.447 179.827 296.152 179.622 295.536C180.2 295.071 180.835 295.201 181.562 295.175C184.323 296.398 192.087 297.276 194.944 296.384C195.67 296.168 196.434 296.074 197.18 295.949C196.99 294.27 197.987 292.619 198.164 290.917C199.888 288.348 201.123 285.249 202.671 282.546C205.219 278.095 208.161 273.728 210.883 269.372Q207.572 267.478 204.625 265.057C200.799 261.879 192.106 254.382 191.636 249.189C192.333 249.564 192.594 250.123 192.972 250.777C195.445 255.053 196.808 254.9 201.494 254.785C204.501 250.832 206.559 246.153 210.294 242.806C212.266 245.153 215.445 248.618 215.186 251.895C215.011 254.094 213.522 255.229 211.956 256.575C211.386 258.559 207.315 262.078 205.742 263.745C208.743 267.81 218.903 269.86 223.616 271.159C223.786 264.178 222.865 257.239 223.478 250.258C223.695 250.328 223.796 251.994 223.815 252.363C224.03 256.547 223.764 268.473 225.886 271.78C226.091 271.791 226.154 271.808 226.378 271.743C227.162 271.514 227.962 270.812 228.76 270.499C229.87 270.064 231.076 269.844 232.16 269.358C235.86 267.698 242.235 263.198 245.029 260.194C246.259 258.871 247.249 257.27 248.29 255.792C244.873 256.16 240.893 256.544 237.557 255.601C235.623 255.055 233.571 254.144 232.545 252.318C232.615 250.43 232.724 248.518 233.562 246.793C234.464 244.938 236.446 242.458 238.509 241.885C239.139 241.709 239.407 241.774 239.966 242.064C240.025 244.457 239.264 246.76 239.33 249.193C239.684 249.807 240.084 250.424 240.59 250.926C242.983 253.302 247.263 252.847 250.359 252.875C251.242 252.061 251.872 251.339 252.47 250.295C253.224 248.432 253.671 246.261 253.863 244.261C254.341 239.281 252.745 233.218 249.514 229.356C247.374 226.798 244.245 224.829 241.119 223.718C234.392 221.327 217.804 220.52 210.972 222.342C208.773 222.928 200.1 227.746 199.377 227.653C199.332 227.648 199.288 227.637 199.243 227.628Z"/>
	<path fill="#401A05" d="M211.956 256.575C211.386 258.559 207.315 262.078 205.742 263.745C205.374 262.575 201.314 258.667 200.211 257.361C204.169 257.317 208.023 256.921 211.956 256.575Z"/>
	<path fill="#532A0F" d="M210.883 269.372C215.154 270.937 219.517 272.424 223.688 274.235C223.394 277.368 223.466 280.576 223.711 283.711C219.044 286.667 202.176 295.512 197.18 295.949C196.99 294.27 197.987 292.619 198.164 290.917C199.888 288.348 201.123 285.249 202.671 282.546C205.219 278.095 208.161 273.728 210.883 269.372Z"/>
	<path fill="#FAD1A5" d="M176.336 79.739C185.121 77.1378 194.182 75.734 203.366 76.1609C208.468 76.3981 213.532 77.0723 218.651 77.252C222.857 77.3997 227.121 77.1211 231.327 76.9802C234.327 78.1653 238.416 77.4387 241.649 77.5779C247.077 77.8115 260.964 79.4833 265.318 82.3238C268.21 84.2102 270.133 87.4863 272.739 89.7545C274.285 91.5702 275.793 93.4353 277.766 94.8116C280.875 94.7698 285.756 98.6956 287.964 100.819C288.825 101.648 289.503 102.374 289.919 103.51C291.715 105.153 293.455 106.889 295.319 108.451C297.01 109.869 299.214 111.251 300.664 112.886C301.466 113.791 301.719 115.091 302.531 116.002L306.009 117.641L306.036 120.753C309.567 123.01 317.018 135.879 320.431 140.052C325.029 145.675 331.226 149.532 335.998 154.922C338.4 157.635 339.85 160.924 341.852 163.914C341.911 164.561 341.804 164.989 341.606 165.604C342.4 166.902 343.22 168.204 343.83 169.6C344.9 172.047 346.712 178.3 346.064 180.852C346.052 180.899 346.035 180.944 346.02 180.99C346.479 181.712 348.243 194.403 348.417 196.425C348.659 199.222 348.491 202.096 348.571 204.907C348.638 207.251 349.162 210.278 348.804 212.548C348.781 212.691 348.707 212.92 348.67 213.047L348.522 213.561L348.213 213.57C347.559 213.591 347.02 213.535 346.499 213.979C346.363 214.325 346.23 214.631 346.188 215.003C346.438 216.232 346.574 219.039 345.875 220.128C345.683 220.427 345.495 220.536 345.195 220.703C344.312 221.354 343.501 221.807 342.483 222.217C341.652 221.232 339.18 219.982 337.979 219.361C339.437 217.534 341.143 214.605 341.88 212.389C343.644 207.081 335.678 207.93 334.347 204.567C334.195 204.183 334.335 204.095 334.482 203.737C334.931 203.459 335.109 203.227 335.644 203.306C335.552 203.967 335.379 204.422 335.691 205.036C335.764 205.057 335.835 205.082 335.908 205.098C336.605 205.253 338.121 204.595 338.701 204.139C339.25 203.707 339.278 203.472 339.363 202.827C338.71 201.372 337.127 201.066 335.812 200.428L335.967 200.206C336.34 200.206 336.705 200.204 337.074 200.265L337.323 200.309C337.572 200.179 337.738 200.094 337.922 199.877C338.326 199.401 338.663 198.56 338.649 197.943C338.483 193.362 333.905 189.811 333.247 185.316C333.077 184.153 333.238 182.832 333.303 181.658C333.662 181.026 333.523 179.527 333.532 178.783C337.066 178.5 340.663 178.733 344.204 178.825C343.174 176.241 336.335 175.176 334.906 173.178C334.121 172.082 336.68 170.443 336.833 169.302C336.846 169.203 336.849 169.102 336.857 169.002C336.82 168.765 336.765 168.563 336.646 168.352C333.352 162.535 316.879 154.045 310.257 152.069C307.109 156.274 308.85 161.362 307.369 166.041C305.294 164.602 304.344 161.612 303.055 159.507C302.152 158.032 301.105 156.915 299.388 156.51C298.04 155.641 295.364 155.024 294.403 153.882C294.186 152.945 294.469 152.467 294.974 151.647L295.071 151.493C294.385 150.646 290.852 150.008 289.757 149.569C288.19 148.941 286.651 147.213 285.396 146.091C282.98 145.525 277.98 145.139 276.082 143.914C276.01 143.042 277.501 141.397 277.687 140.204L277.723 139.959C278.362 138.621 278.026 136.496 277.948 135.039Q277.716 134.642 277.465 134.256C274.652 129.951 267.54 128.42 262.806 127.44C261.132 127.032 259.929 127.393 258.303 127.801C247.422 131.617 248.622 134.919 235.281 131.829C236.028 132.646 237.069 133.366 237.348 134.478L237.126 134.751C236.246 134.42 235.268 133.498 234.684 132.767C233.762 131.616 233.453 129.636 233.674 128.207C234.832 120.713 243.334 118.344 248.521 114.471L248.762 114.288Q249.258 111.386 249.616 108.464L249.537 108.328C247.27 104.515 237.745 94.8386 233.93 92.749C233.887 92.7549 233.844 92.7602 233.8 92.7667C230.247 93.3031 228.165 95.3623 225.514 97.5743C224.913 98.075 224.262 98.7195 223.549 99.0492C219.308 101.01 212.705 93.8798 209.505 91.6537C208.491 90.9481 207.365 90.4896 206.223 90.0345C202.258 91.3008 199.547 94.2451 195.845 95.7594C193.436 96.7448 189.984 96.3261 187.864 97.6113C186.427 98.4822 186.327 100.552 185.183 101.757C183.533 103.496 181.003 104.575 179.129 106.146C179.056 106.766 179.016 107.613 178.544 108.082C177.605 109.014 174.024 109.331 172.629 109.919C170.677 110.743 168.775 112.302 167.141 113.64C168.038 114.386 170.009 114.349 171.146 114.906L171.043 115.165C168.406 115.707 162.518 113.652 159.545 113.246C155.688 112.718 152.018 112.972 148.15 112.123C145.376 111.514 145.823 108.142 144.517 106.256C144.487 106.214 144.456 106.173 144.425 106.132C145.318 105.002 146.468 105.085 146.973 104.229C146.703 103.617 146.474 103.029 146.301 102.382C147.028 100.654 149.25 100.722 150.652 99.7224C152.244 98.5861 153.769 96.7158 155.206 95.3372C156.431 94.4487 157.678 93.6339 158.963 92.8355C165.354 90.7804 169.11 86.0782 173.813 81.7095C174.593 80.9846 175.525 80.4378 176.336 79.739Z"/>
	<path fill="#9A6E44" d="M277.766 94.8116C280.875 94.7698 285.756 98.6956 287.964 100.819C288.825 101.648 289.503 102.374 289.919 103.51C289.876 103.512 289.834 103.515 289.791 103.516C289.72 103.517 289.65 103.515 289.579 103.516C289.243 103.519 288.913 103.518 288.58 103.465C284.214 102.766 280.196 98.2786 277.766 94.8116Z"/>
	<path fill="#FAD1A5" d="M213.465 172.63L212.366 170.362C213.42 170.4 215.431 173.503 216.608 173.955C218.061 174.514 223.067 173.93 224.471 173.347L223.968 172.623C224.271 172.255 224.33 172.241 224.814 172.197C225.471 172.135 226.147 172.4 226.797 172.288C227.812 172.113 236.357 166.698 238.78 165.714C242.003 169.227 244.652 173.411 248.24 176.555C249.175 176.05 250.603 176.327 251.592 176.631C252.141 176.8 252.553 177.075 252.987 177.442C253.779 179.17 254.386 180.738 255.86 182.024C256.792 182.763 257.476 182.875 258.621 183.023C260.011 184.137 262.859 185.006 264.647 185.344L265.429 186.038L266.049 186.909C266.529 187.059 266.65 187.221 266.982 187.601C268.347 189.165 272.153 189.934 272.113 192.321L271.565 193.128L271.411 194.619C272.051 195.063 274.101 196.146 274.247 196.877C274.518 198.222 273.96 199.78 275.221 200.769C275.65 201.106 276.462 201.509 277.015 201.444L278.41 201.587C277.924 202.526 277.305 203.054 276.717 203.878C280.315 206.687 281.523 213.443 287.01 212.804C287.086 212.795 287.162 212.784 287.237 212.775C289.796 212.729 291.84 214.188 294.003 215.384L294.786 215.244C295.957 215.153 299.142 214.546 300.001 215.263L299.785 215.64L298.403 216.358C297.239 218.88 297.273 222.752 298.319 225.303C298.339 225.35 298.371 225.391 298.396 225.436C298.892 226.556 298.745 227.892 298.723 229.095C298.949 237.127 299.042 245.815 296.146 253.457L296.257 253.748C295.861 255.611 295.244 257.631 295.555 259.541L295.404 260.851L293.769 260.372C292.811 260.947 291.295 262.317 291.032 263.451C290.952 263.792 291.106 264.083 291.258 264.375L289.922 264.285L289.782 264.666L289.211 264.867L289.599 265.125C288.795 265.664 287.105 266.582 286.184 266.848L285.62 267.258C284.463 269.253 283.141 271.747 283.752 274.116Q283.867 274.553 284.007 274.983L283.786 275.186L283.405 275.266C282.031 277.993 280.352 280.525 278.687 283.08Q277.149 285.888 275.204 288.432C274.663 289.03 274.193 289.59 273.486 289.999C272.691 290.948 271.092 291.854 270.02 292.481C265.684 295.015 262.277 295.36 257.56 296.42C256.498 296.659 255.599 297.271 254.491 296.981C252.871 295.852 253.429 293.345 252.727 291.659C250.974 287.448 247.155 284.443 244.994 280.425C242.659 276.61 242.131 270.31 239.655 267.344Q242.778 264.577 245.829 261.73C248.493 258.66 250.484 254.774 252.867 251.452L254.059 248.936Q254.319 247.619 254.497 246.288C255.398 239.048 253.2 232.96 248.782 227.338C241.524 221.702 232.075 220.968 223.218 220.978C220.144 220.982 217.057 220.993 214.002 221.378C208.827 222.031 203.176 224.12 199.243 227.628L198.685 227.78C197.86 228.731 196.877 229.693 196.206 230.755L193.788 233.854C190.458 232.663 185.651 231.898 182.135 232.017C180.978 230.912 179.855 229.832 178.863 228.57C178.625 226.569 179.625 225.998 180.508 224.433C180.133 223.939 179.658 224.01 179.068 223.926L178.627 223.227L178.862 222.46C178.633 222.022 178.397 221.745 178.043 221.402C177.468 220.846 177.166 220.49 176.917 219.718C177.323 217.764 180.337 214.931 181.697 213.428L181.794 212.976C180.915 211.661 179.851 211.069 178.507 210.308C179.349 208.979 180.68 208.028 181.402 206.642L181.741 206.003C182.151 204.906 182.317 203.798 182.81 202.695C183.058 202.113 183.299 201.6 183.804 201.195C185.133 200.128 187.054 200.445 188.626 200.566C187.994 199.623 187.243 198.681 186.876 197.597C185.843 194.545 187.574 191.802 188.906 189.166C191.087 186.012 193.389 183.013 196.021 180.221C195.939 178.347 195.851 176.522 196.074 174.654C196.413 174.884 197.122 175.492 197.499 175.581C198.231 175.752 199.879 175.037 200.765 175.091C201.886 175.158 202.508 176.014 203.705 175.906L203.922 175.604C205.449 173.699 207.051 173.327 209.388 173.075C210.747 172.928 212.12 172.873 213.465 172.63Z"/>
	<path fill="#D08937" d="M267.308 254.137C267.792 254.583 268.069 254.907 268.124 255.62C268.184 256.412 267.951 256.755 267.475 257.308C267.1 256.808 266.871 256.346 266.65 255.762C266.663 255.026 266.877 254.721 267.308 254.137Z"/>
	<path fill="#D1A074" d="M268.44 278.032C268.66 277.848 268.615 277.915 268.75 277.72C269.068 277.262 269.388 276.825 269.737 276.389C270.461 276.222 270.624 276.347 271.304 276.598C270.911 277.555 270.417 278.23 269.761 279.023C269.342 278.575 269.048 278.193 268.44 278.032Z"/>
	<path fill="#E8B98D" d="M182.81 202.695C183.651 203.323 184.617 204.006 184.786 205.082C183.962 205.956 182.841 205.796 181.741 206.003C182.151 204.906 182.317 203.798 182.81 202.695Z"/>
	<path fill="#9A6E44" d="M271.304 276.598L272.542 277.096C272.204 278.706 271.21 279.053 270.458 280.292L269.531 281.051L268.719 280.34C269.241 279.87 269.531 279.698 269.761 279.023C270.417 278.23 270.911 277.555 271.304 276.598Z"/>
	<path fill="#9A6E44" d="M284.641 263.975C286.197 264.109 287.745 264.311 289.211 264.867L289.599 265.125C288.795 265.664 287.105 266.582 286.184 266.848L284.641 263.975Z"/>
	<path fill="#9A6E44" d="M258.835 259.251C260.106 259.214 262.142 259.121 263.258 259.783C263.707 260.049 263.715 260.178 263.856 260.649L263.361 261.344C262.595 261.696 261.677 262.008 260.829 262.056C260.131 262.095 259.714 261.907 259.212 261.439C258.792 260.689 258.83 260.082 258.835 259.251Z"/>
	<path fill="#E8B98D" d="M272.634 264.47C273.094 264.368 273.678 264.303 274.113 264.141C275.298 263.701 276.139 260.6 277.438 261.241C277.774 262.333 277.352 263.223 276.847 264.198C276.215 265.415 275.456 266.521 274.435 267.438L272.634 264.47Z"/>
	<path fill="#D08937" d="M248.24 176.555C249.175 176.05 250.603 176.327 251.592 176.631C252.141 176.8 252.553 177.075 252.987 177.442C253.779 179.17 254.386 180.738 255.86 182.024L254.077 181.916C252.41 180 250.073 178.391 248.24 176.555Z"/>
	<path fill="#E8B98D" d="M182.197 218.701C183.209 219.078 184.387 219.492 184.976 220.45C184.906 220.819 184.982 220.855 184.644 221.088C183.184 222.095 180.734 221.582 179.058 222.13C178.551 221.236 178.31 220.911 178.367 219.865C179.164 218.795 180.793 219.046 182.01 218.749L182.197 218.701Z"/>
	<path fill="#E8B98D" d="M181.402 206.642C182.257 208.276 182.696 209.956 184.382 210.986C184.898 211.029 185.323 211.008 185.833 210.926C186.315 211.146 186.725 211.222 187.001 211.683C185.91 211.96 184.564 211.772 183.434 211.728L181.794 212.976C180.915 211.661 179.851 211.069 178.507 210.308C179.349 208.979 180.68 208.028 181.402 206.642Z"/>
	<path fill="#D1A074" d="M181.697 213.428Q183.317 214.508 184.96 215.552C183.855 215.899 182.327 216.188 181.515 217.02C181.465 217.291 181.326 217.544 181.489 217.779C181.712 218.103 181.934 218.407 182.197 218.701L182.01 218.749C180.793 219.046 179.164 218.795 178.367 219.865C178.31 220.911 178.551 221.236 179.058 222.13L178.862 222.46C178.633 222.022 178.397 221.745 178.043 221.402C177.468 220.846 177.166 220.49 176.917 219.718C177.323 217.764 180.337 214.931 181.697 213.428Z"/>
	<path fill="#E8B98D" d="M297.409 215.986L298.403 216.358C297.239 218.88 297.273 222.752 298.319 225.303C298.339 225.35 298.371 225.391 298.396 225.436C298.892 226.556 298.745 227.892 298.723 229.095C298.181 225.925 294.743 223.869 294.937 220.23C295.043 218.258 296.037 217.274 297.409 215.986Z"/>
	<path fill="#E8B98D" d="M271.411 194.619C272.051 195.063 274.101 196.146 274.247 196.877C274.518 198.222 273.96 199.78 275.221 200.769C275.65 201.106 276.462 201.509 277.015 201.444L278.41 201.587C277.924 202.526 277.305 203.054 276.717 203.878C276.624 203.862 276.531 203.85 276.439 203.831C274.994 203.523 272.741 201.131 272.016 199.865C271.007 198.101 270.897 196.564 271.411 194.619Z"/>
	<path fill="#D1A074" d="M254.077 181.916L255.86 182.024C256.792 182.763 257.476 182.875 258.621 183.023C260.011 184.137 262.859 185.006 264.647 185.344C262.312 186.73 261.714 184.408 259.786 186.914L259.342 187.152C258.728 187.265 258.25 187.284 257.632 187.189C255.807 186.153 254.966 183.715 254.077 181.916Z"/>
	<path fill="#E8B98D" d="M259.786 186.914C261.714 184.408 262.312 186.73 264.647 185.344L265.429 186.038L266.049 186.909C266.529 187.059 266.65 187.221 266.982 187.601C268.347 189.165 272.153 189.934 272.113 192.321L271.565 193.128C271.094 192.509 270.54 191.904 269.956 191.391C268.023 189.692 264.053 187.691 261.418 187.915C260.889 188.635 261.132 189.548 261.22 190.414L260.769 190.337C260.166 189.641 260.146 188.23 259.946 187.33L259.342 187.152L259.786 186.914Z"/>
	<defs>
		<linearGradient id="gradient_10" gradientUnits="userSpaceOnUse" x1="288.2269" y1="263.79608" x2="288.09384" y2="258.67612">
			<stop offset="0" stop-color="#C89874"/>
			<stop offset="1" stop-color="#E0B78F"/>
		</linearGradient>
	</defs>
	<path fill="url(#gradient_10)" d="M285.394 258.432C287.963 258.51 290.536 258.851 292.975 259.681C293.209 259.982 293.442 260.115 293.745 260.336C293.756 260.345 293.761 260.36 293.769 260.372C292.811 260.947 291.295 262.317 291.032 263.451C290.952 263.792 291.106 264.083 291.258 264.375L289.922 264.285C286.998 263.151 285.09 261.992 283.008 259.589L285.394 258.432Z"/>
	<path fill="#D1A074" d="M196.074 174.654C196.413 174.884 197.122 175.492 197.499 175.581C198.231 175.752 199.879 175.037 200.765 175.091C201.886 175.158 202.508 176.014 203.705 175.906L203.922 175.604C203.96 175.638 203.997 175.673 204.037 175.706C205.509 176.913 208.066 176.38 209.016 178.244L208.77 178.603C207.428 178.772 206.016 178.587 204.664 178.546C201.611 178.455 198.845 179.121 196.021 180.221C195.939 178.347 195.851 176.522 196.074 174.654Z"/>
	<path fill="#E8B98D" d="M282.343 255.515Q282.66 255.311 282.99 255.13C287.118 252.876 288.922 253.364 293.257 254.593C294.184 254.126 295.169 253.803 296.146 253.457L296.257 253.748C295.861 255.611 295.244 257.631 295.555 259.541L295.404 260.851L293.769 260.372C293.761 260.36 293.756 260.345 293.745 260.336C293.442 260.115 293.209 259.982 292.975 259.681C293.371 259.451 293.311 259.393 293.47 258.987C292.491 257.094 287.006 256.897 285.049 256.45C284.12 256.239 283.225 255.871 282.343 255.515Z"/>
	<path fill="#D1A074" d="M272.542 277.096C274.357 276.39 274.57 274.907 275.842 273.713C276.228 273.35 276.321 273.395 276.818 273.423C279.01 274.198 281.103 274.882 283.405 275.266C282.031 277.993 280.352 280.525 278.687 283.08Q277.149 285.888 275.204 288.432C274.663 289.03 274.193 289.59 273.486 289.999C273.018 290.011 272.806 290.098 272.404 290.346C271.975 290.61 271.558 290.83 271.099 291.038C271.058 291.007 271.013 290.982 270.976 290.946C269.997 289.987 269.131 283.792 269.331 282.437C269.449 281.64 269.823 281.514 270.438 281.105L270.458 280.292C271.21 279.053 272.204 278.706 272.542 277.096Z"/>
	<path fill="#E8B98D" d="M276.818 273.423C279.01 274.198 281.103 274.882 283.405 275.266C282.031 277.993 280.352 280.525 278.687 283.08C276.827 279.854 277.127 277.011 276.818 273.423Z"/>
	<path fill="#E8B98D" d="M198.685 227.78C198.545 227.429 198.433 227.143 198.488 226.76C199.263 221.426 207.14 213.921 211.344 210.843C215.465 207.825 220.686 205.655 225.867 206.491C233.307 207.691 242.227 213.422 246.545 219.585C248.194 221.938 249.281 224.438 248.782 227.338C241.524 221.702 232.075 220.968 223.218 220.978C220.144 220.982 217.057 220.993 214.002 221.378C208.827 222.031 203.176 224.12 199.243 227.628L198.685 227.78Z"/>
	<defs>
		<linearGradient id="gradient_11" gradientUnits="userSpaceOnUse" x1="244.54794" y1="277.56235" x2="274.23349" y2="269.80807">
			<stop offset="0" stop-color="#88613A"/>
			<stop offset="1" stop-color="#D2A77A"/>
		</linearGradient>
	</defs>
	<path fill="url(#gradient_11)" d="M254.059 248.936C254.083 250.208 253.818 252.445 254.243 253.622C254.702 254.892 255.901 255.853 256.216 257.206C256.565 258.707 255.858 260.655 256.448 262.043C257.607 262.208 258.012 262.338 258.749 263.313C261.366 266.775 260.142 267.44 264.895 268.945L265.339 269.052C266.129 268.981 266.963 268.938 267.739 268.77C270.034 268.273 270.084 265.659 271.155 264.118C271.38 263.793 271.413 263.83 271.801 263.754L272.634 264.47L274.435 267.438L274.237 267.663C272.807 269.261 267.006 273.06 266.793 274.802C267.144 276.024 267.915 276.908 268.44 278.032C269.048 278.193 269.342 278.575 269.761 279.023C269.531 279.698 269.241 279.87 268.719 280.34L269.531 281.051L270.458 280.292L270.438 281.105C269.823 281.514 269.449 281.64 269.331 282.437C269.131 283.792 269.997 289.987 270.976 290.946C271.013 290.982 271.058 291.007 271.099 291.038C271.558 290.83 271.975 290.61 272.404 290.346C272.806 290.098 273.018 290.011 273.486 289.999C272.691 290.948 271.092 291.854 270.02 292.481C265.684 295.015 262.277 295.36 257.56 296.42C256.498 296.659 255.599 297.271 254.491 296.981C252.871 295.852 253.429 293.345 252.727 291.659C250.974 287.448 247.155 284.443 244.994 280.425C242.659 276.61 242.131 270.31 239.655 267.344Q242.778 264.577 245.829 261.73C248.493 258.66 250.484 254.774 252.867 251.452L254.059 248.936Z"/>
	<path fill="#7D4D25" d="M247.197 273.399C247.98 273.178 248.679 272.886 249.487 273.13C249.777 273.707 249.699 273.876 249.485 274.493C249.28 275.084 248.942 275.658 248.649 276.21C247.776 275.239 247.225 274.761 247.197 273.399Z"/>
	<path fill="#7D4D25" d="M258.425 283.197C259.221 283.537 260.143 284.056 260.478 284.875C260.431 285.684 260.19 285.956 259.756 286.615C258.953 286.131 257.944 285.793 257.548 284.897C257.573 284.142 257.97 283.749 258.425 283.197Z"/>
	<path fill="#9A6E44" d="M264.895 268.945L265.339 269.052C265.923 269.767 266.627 270.46 266.85 271.373L266.603 271.846C265.608 272.134 264.628 271.677 263.719 271.269L263.684 271.045C263.794 270.514 263.899 270.006 264.121 269.508C264.317 269.069 264.439 269.117 264.895 268.945Z"/>
	<path fill="#7D4D25" d="M259.206 273.269C259.249 273.356 259.29 273.444 259.335 273.531C259.697 274.235 259.959 274.605 259.873 275.417C259.541 275.814 259.51 275.932 258.953 275.952C258.192 275.981 257.198 275.43 256.69 274.882C256.196 274.347 256.159 274.075 256.163 273.396C256.749 272.815 257.144 272.767 257.921 272.556L259.206 273.269Z"/>
	<path fill="#7D4D25" d="M268.719 280.34L269.531 281.051C269.22 281.471 268.901 281.917 268.515 282.271C267.791 282.936 266.798 283.438 265.791 283.319C265.084 283.235 264.497 283.02 264.058 282.474C264.092 282.402 264.121 282.328 264.159 282.258C264.686 281.286 267.688 280.675 268.719 280.34Z"/>
	<path fill="#C8945C" d="M256.63 262.62C256.72 263.085 256.822 263.464 257.027 263.893C257.414 264.704 257.481 265.639 257.716 266.502C258.157 268.114 258.914 269.488 259.798 270.89C260.036 271.637 260.381 272.104 260.886 272.696L259.206 273.269L257.921 272.556C256.848 270.982 255.67 269.604 254.846 267.864C255.234 266.033 256.221 264.434 256.63 262.62Z"/>
	<path fill="#E8B98D" d="M254.059 248.936C254.083 250.208 253.818 252.445 254.243 253.622C254.702 254.892 255.901 255.853 256.216 257.206C256.565 258.707 255.858 260.655 256.448 262.043C257.607 262.208 258.012 262.338 258.749 263.313C261.366 266.775 260.142 267.44 264.895 268.945C264.439 269.117 264.317 269.069 264.121 269.508C263.899 270.006 263.794 270.514 263.684 271.045L263.719 271.269C263.338 271.896 263.005 272.69 262.295 272.971C261.778 272.939 261.37 272.909 260.886 272.696C260.381 272.104 260.036 271.637 259.798 270.89C258.914 269.488 258.157 268.114 257.716 266.502C257.481 265.639 257.414 264.704 257.027 263.893C256.822 263.464 256.72 263.085 256.63 262.62C251.435 259.781 255.114 255.041 252.867 251.452L254.059 248.936Z"/>
	<path fill="#D1A074" d="M259.798 270.89L263.684 271.045L263.719 271.269C263.338 271.896 263.005 272.69 262.295 272.971C261.778 272.939 261.37 272.909 260.886 272.696C260.381 272.104 260.036 271.637 259.798 270.89Z"/>
	<path fill="#7D4D25" d="M239.655 267.344Q242.778 264.577 245.829 261.73C246.507 265.83 243.847 269.523 247.197 273.399C247.225 274.761 247.776 275.239 248.649 276.21C247.545 277.342 246.299 279.715 244.994 280.425C242.659 276.61 242.131 270.31 239.655 267.344Z"/>
</svg>
